<ttFont>
          <CharString index="0">
            -106 callgsubr
            186 48 157 89 17 vhcurveto
            return
          </CharString>
          <CharString index="1">
            rmoveto
            -81 callsubr
            -79 574 -53 -11 -283 -567 -72 -13 -5 -35 rlineto
            190 hlineto
            9 37 -65 10 87 176 rlineto
            167 hlineto
            -146 43 rmoveto
            111 223 29 -223 rlineto
            -140 hlineto
            return
          </CharString>
          <CharString index="2">
            -82 -51 -77 -29 -43 hhcurveto
            -23 -16 13 27 hvcurveto
            36 80 329 22 vvcurveto
            13 -9 9 -13 -29 -64 -16 -20 -56 vhcurveto
            4 -24 76 -8 rlineto
            -17 -100 -53 -198 -65 vvcurveto
            -70 38 -12 35 return
          </CharString>
          <CharString index="3">
            rmoveto
            -222 -121 -200 -211 -129 63 -95 157 224 117 201 214 127 -60 93 -158 hvcurveto
            -253 -409 rmoveto
            94 44 267 197 110 32 -79 -98 -144 -64 -218 -180 -104 -35 75 103 vhcurveto
            return
          </CharString>
          <CharString index="4">
            rmoveto
            92 34 57 59 12 hvcurveto
            -33 hlineto
            -32 -6 -22 -30 -70 hhcurveto
            -58 -12 21 25 -2 hvcurveto
            5 1 6 2 5 vhcurveto
            -34 hlineto
            -2 -9 -3 -11 -9 vvcurveto
            -48 22 -39 79 vhcurveto
            return
          </CharString>
          <CharString index="5">
            8 7 1 5 hhcurveto
            20 10 -8 -14 -40 -62 15 -3 -42 hvcurveto
            -1 -10 rlineto
            38 hlineto
            5 21 23 3 22 10 rrcurveto
            17 8 16 13 25 vvcurveto
            30 -30 15 -46 return
          </CharString>
          <CharString index="6">
            -104 callgsubr
            endchar
          </CharString>
          <CharString index="7">
            rmoveto
            33 -29 27 -31 -32 -28 -27 -33 -33 28 -24 32 31 29 24 33 vhcurveto
            return
          </CharString>
          <CharString index="8">
            rmoveto
            -151 -21 -50 -50 -131 hhcurveto
            -34 -37 6 14 -38 hvcurveto
            -13 -43 rlineto
            -22 49 36 -12 53 hhcurveto
            158 78 80 103 20 hvcurveto
            97 509 -32 8 -22 -35 rlineto
            0 -54 18 -46 -202 -85 -168 -184 -117 54 -25 64 43 68 16 53 45 vhcurveto
            -1 376 rmoveto
            28 29 -9 -14 16 hvcurveto
            -101 -21 -31 -169 -2 hhcurveto
            -67 -27 -74 -23 -39 hhcurveto
            -40 -25 16 74 88 32 205 154 hvcurveto
            endchar
          </CharString>
          <CharString index="9">
            85 -3 callgsubr
            1 callsubr
            432 -92 callsubr
            return
          </CharString>
          <CharString index="10">
            rmoveto
            195 9 -43 240 -21 hhcurveto
            -31 -59 -14 -21 -56 hvcurveto
            6 -25 77 -8 rlineto
            35 -99 8 -134 -116 vvcurveto
            -41 -1 -31 -2 -33 vhcurveto
            -51 -161 87 16 41 166 rlineto
            91 71 157 179 210 vvcurveto
            17 -1 12 -3 12 vhcurveto
            -30 -47 -16 -20 -56 hvcurveto
            5 -24 56 -7 rlineto
            3 -8 1 -8 -14 vvcurveto
            -72 -33 -138 -142 -128 vhcurveto
            return
          </CharString>
          <CharString index="11">
            rmoveto
            20 31 -5 -8 15 hvcurveto
            8 -74 rlineto
            29 hlineto
            33 106 rlineto
            20 -39 -47 9 -39 hhcurveto
            -116 -73 -69 -92 -58 35 -33 34 -16 hvcurveto
            76 -35 rlineto
            42 -19 16 -23 -28 vvcurveto
            -66 -45 -27 -69 -37 -23 7 8 -20 vhcurveto
            -7 86 rlineto
            -30 hlineto
            -31 -120 rlineto
            -22 39 54 -7 42 hhcurveto
            128 74 64 102 61 -33 30 -44 21 hvcurveto
            -72 35 rlineto
            -39 19 -20 16 36 vvcurveto
            46 40 36 68 vhcurveto
            return
          </CharString>
          <CharString index="12">
            rmoveto
            -92 -34 -57 -59 -12 hvcurveto
            33 hlineto
            32 6 22 30 70 hhcurveto
            58 12 -21 -25 2 hvcurveto
            -5 -1 -6 -2 -5 vhcurveto
            34 hlineto
            2 9 3 11 9 vvcurveto
            48 -22 39 -79 vhcurveto
            return
          </CharString>
          <CharString index="13">
            -91 callsubr
            vhcurveto
            hintmask 01111000
            -72 callgsubr
            hintmask 10111000
            -88 callsubr
            hintmask 10110000
            -39 callgsubr
            hintmask 01110000
            -99 callgsubr
            endchar
          </CharString>
          <CharString index="14">
            2 39 1 50 36 vvcurveto
            166 -20 118 -10 26 vhcurveto
            -85 -15 rlineto
            14 -37 12 -47 -36 vvcurveto
            -82 -63 -130 -112 -87 vhcurveto
            2 38 1 48 36 vvcurveto
            174 -16 139 -10 -31 -60 -16 -20 -56 vhcurveto
            4 -24 76 -8 rlineto
            0 14 -104 -185 vvcurveto
            -40 -4 -71 -5 -46 vhcurveto
            90 16 rlineto
            0 159 137 24 92 vhcurveto
            2 -25 0 -11 -26 vvcurveto
            -60 -2 -61 -8 -62 vhcurveto
            82 16 rlineto
            117 78 138 183 197 vvcurveto
            13 -2 14 -2 13 vhcurveto
            -30 -46 -16 -20 -56 hvcurveto
            5 -24 56 -7 rlineto
            return
          </CharString>
          <CharString index="15">
            hlineto
            -94 callgsubr
            return
          </CharString>
          <CharString index="16">
            61 314 -31 8 -22 -39 rlineto
            0 -53 15 -44 -174 -111 -133 -225 return
          </CharString>
          <CharString index="17">
            137 -16 callsubr
            -74 22 -55 187 7 32 -49 18 rlinecurve
            133 31 36 103 62 vvcurveto
            67 -47 56 -125 vhcurveto
            -228 hlineto
            -6 -33 83 -3 callgsubr
            -91 -71 callsubr
            252 -16 callsubr
            -83 20 44 226 rlineto
            36 hlineto
            57 -7 -2 -277 72 hvcurveto
            -93 319 rmoveto
            -57 hlineto
            46 240 rlineto
            6 21 22 4 18 hhcurveto
            73 27 -28 -59 -94 -63 -69 -87 hvcurveto
            return
          </CharString>
          <CharString index="18">
            rmoveto
            -6 -33 -75 callgsubr
            98 505 -46 callsubr
            return
          </CharString>
          <CharString index="19">
            -58 callgsubr
            27 29 9 19 55 vhcurveto
            30 -79 vlineto
            return
          </CharString>
          <CharString index="20">
            rmoveto
            26 19 -69 138 rlineto
            -60 hlineto
            -119 -138 20 -19 119 86 83 -86 rlineto
            return
          </CharString>
          <CharString index="21">
            rmoveto
            15 -7 8 -13 -23 -75 -15 -20 -50 35 callsubr
            -76 -438 rlineto
            83 callgsubr
            -63 hhcurveto
            -27 -27 5 6 -22 hvcurveto
            -8 -37 rlineto
            0 45 -29 63 96 58 60 97 18 vhcurveto
            34 189 51 297 6 vvcurveto
            endchar
          </CharString>
          <CharString index="22">
            15 -4 24 -9 18 vhcurveto
            -68 -14 -6 -13 rlineto
            3 -13 2 -16 -12 vvcurveto
            return
          </CharString>
          <CharString index="23">
            rmoveto
            -91 callsubr
            return
          </CharString>
          <CharString index="24">
            -84 callsubr
            vhcurveto
            return
          </CharString>
          <CharString index="25">
            rmoveto
            41 34 21 20 31 hvcurveto
            -8 32 rlineto
            -7 -15 -17 -2 -14 -76 -39 66 -96 hhcurveto
            313 392 -20 27 -59 -16 rlineto
            -274 hlineto
            9 -73 rlineto
            231 hlineto
            return
          </CharString>
          <CharString index="26">
            23 -175 -62 -12 -5 -36 rlineto
            204 hlineto
            6 35 -62 17 return
          </CharString>
          <CharString index="27">
            rmoveto
            -36 hlineto
            -53 -93 rlineto
            -240 hlineto
            403 525 2 32 rlineto
            -388 hlineto
            -17 -132 rlineto
            36 hlineto
            36 79 rlineto
            223 hlineto
            -403 -525 11 -33 rlineto
            388 hlineto
            38 147 rlineto
            return
          </CharString>
          <CharString index="28">
            rmoveto
            214 -103 16 19 -154 130 -76 -28 rlineto
            -18 vlineto
            return
          </CharString>
          <CharString index="29">
            rmoveto
            14 115 rlineto
            -34 hlineto
            -40 -84 rlineto
            -11 -36 -31 -4 -25 hhcurveto
            -114 -38 71 107 171 78 190 173 45 27 -4 -8 26 hvcurveto
            -97 33 vlineto
            35 130 rlineto
            15 -37 -47 12 -79 hhcurveto
            -212 -132 -196 -219 return
          </CharString>
          <CharString index="30">
            552 -87 callsubr
            return
          </CharString>
          <CharString index="31">
            -52 callgsubr
            hintmask 01111010
            -105 callsubr
            vhcurveto
            hintmask 01111100
            -36 callsubr
            hvcurveto
            return
          </CharString>
          <CharString index="32">
            80 -20 -67 callgsubr
            return
          </CharString>
          <CharString index="33">
            -97 -29 26 91 23 2 27 6 30 hvcurveto
            188 103 65 103 return
          </CharString>
          <CharString index="34">
            1 -9 rlineto
            53 15 -21 -22 -40 -39 -33 -50 -12 -13 1 5 -13 hvcurveto
            -14 -27 rlineto
            -5 16 17 -2 22 hhcurveto
            76 75 52 64 33 -27 26 -65 hvcurveto
            return
          </CharString>
          <CharString index="35">
            83 56 47 165 30 hvcurveto
            90 495 87 17 callsubr
            80 -20 -96 -528 rlineto
            -72 -13 -21 -52 -61 hhcurveto
            -68 hlineto
            -9 -28 rlineto
            -15 19 26 -12 43 hhcurveto
            endchar
          </CharString>
          <CharString index="36">
            -20 -44 callgsubr
            return
          </CharString>
          <CharString index="37">
            -69 callgsubr
            endchar
          </CharString>
          <CharString index="38">
            rmoveto
            -85 callsubr
            -40 -23 -11 -34 -2 vhcurveto
            35 -35 -53 21 -74 hhcurveto
            -222 -121 -200 -211 -129 63 -95 157 hvcurveto
            hintmask 11110000
            -8 callgsubr
            hintmask 11101000
            63 14 49 35 51 vvcurveto
            hintmask 11110000
            -415 -595 -60 callsubr
            endchar
          </CharString>
          <CharString index="39">
            -31 12 rlineto
            0 -20 -35 -23 vhcurveto
            return
          </CharString>
          <CharString index="40">
            -127 -32 -77 -97 -18 hvcurveto
            -13 -65 -101 -26 5 -22 rlineto
            85 hlineto
            -76 -440 rlineto
            -97 -17 -41 -16 -61 hhcurveto
            -27 -26 5 7 -23 hvcurveto
            -7 -36 rlineto
            0 58 -30 57 100 46 60 100 18 vhcurveto
            80 447 rlineto
            117 53 -108 hlineto
            9 53 rlineto
            95 16 30 25 73 hhcurveto
            28 return
          </CharString>
          <CharString index="41">
            28 147 rlineto
            -36 hlineto
            -41 -91 rlineto
            -181 hlineto
            98 502 -46 callsubr
            -6 -33 -75 callsubr
            402 hlineto
            return
          </CharString>
          <CharString index="42">
            rmoveto
            18 11 -59 159 rlineto
            -75 -17 hlineto
            116 -153 rlineto
            161 hmoveto
            18 11 -59 159 rlineto
            -75 -17 hlineto
            116 -153 rlineto
            return
          </CharString>
          <CharString index="43">
            0 -95 -519 -14 -73 vhcurveto
            -3 -10 -1 -10 -10 vvcurveto
            -28 12 -16 36 25 42 10 20 58 vhcurveto
            30 -89 vlineto
            120 638 rlineto
            1 5 0 5 6 vvcurveto
            return
          </CharString>
          <CharString index="44">
            765 -61 callgsubr
            return
          </CharString>
          <CharString index="45">
            rmoveto
            -75 -16 -35 -167 25 -7 100 173 -15 17 rlineto
            endchar
          </CharString>
          <CharString index="46">
            33 85 -40 34 hhcurveto
            32 22 44 51 21 hvcurveto
            return
          </CharString>
          <CharString index="47">
            rmoveto
            -104 -35 75 103 94 44 267 197 110 32 -79 -98 -144 -64 -218 -180 hvcurveto
            return
          </CharString>
          <CharString index="48">
            -87 callsubr
            -95 -44 callsubr
            return
          </CharString>
          <CharString index="49">
            -66 callgsubr
            11 -16 35 return
          </CharString>
          <CharString index="50">
            rmoveto
            -61 -50 -16 -28 -40 hvcurveto
            11 55 -31 8 -22 -34 rlineto
            0 -54 15 -43 -174 -111 -137 -226 vhcurveto
            hintmask 01111100
            -116 53 -34 62 45 71 28 100 69 vhcurveto
            hintmask 10111100
            -89 15 67 -40 76 hhcurveto
            43 46 12 23 45 hvcurveto
            -7 34 rlineto
            -9 -26 -31 -9 -20 hhcurveto
            -84 -43 25 91 24 3 26 6 32 hvcurveto
            187 103 64 104 65 -48 32 -57 hvcurveto
            hintmask 01111100
            -426 -452 rmoveto
            -39 -26 22 69 154 57 159 133 34 18 -9 -14 15 hvcurveto
            -98 -20 -34 -182 -1 hhcurveto
            -43 -28 -72 -58 -37 hhcurveto
            405 404 rmoveto
            34 16 -26 -31 -83 -81 -44 -125 hvcurveto
            117 24 54 67 78 hhcurveto
            endchar
          </CharString>
          <CharString index="51">
            20 -45 callsubr
            return
          </CharString>
          <CharString index="52">
            189 -80 38 hlineto
            25 132 rlineto
            return
          </CharString>
          <CharString index="53">
            -3 -13 49 543 48 hstemhm
            29 82 -9 78 146 80 -31 82 hintmask 11101000
            185 -13 rmoveto
            143 78 80 111 53 -31 50 -65 49 hvcurveto
            hintmask 11010100
            113 57 34 72 55 vvcurveto
            52 -29 61 -115 -123 -88 -73 -104 -65 42 -42 43 -31 vhcurveto
            hintmask 11101000
            -97 -52 -61 -71 -85 vvcurveto
            -62 42 -55 114 vhcurveto
            hintmask 11010100
            88 366 rmoveto
            -55 32 -38 46 45 vvcurveto
            74 64 29 52 68 11 -37 -45 -55 -24 -44 -78 -45 vhcurveto
            hintmask 11101000
            -75 -317 rmoveto
            -54 -33 24 54 92 57 48 56 34 hvcurveto
            81 -54 21 -36 -52 vvcurveto
            -63 -51 -47 -77 vhcurveto
            endchar
          </CharString>
          <CharString index="54">
            rmoveto
            -19 -140 rlineto
            34 hlineto
            36 88 rlineto
            133 hlineto
            -98 -506 -105 -71 callsubr
            279 -16 callsubr
            -96 20 98 506 rlineto
            133 -88 37 hlineto
            33 140 rlineto
            -465 hlineto
            return
          </CharString>
          <CharString index="55">
            18 -8 58 -58 61 399 48 return
          </CharString>
          <CharString index="56">
            611 rmoveto
            -61 hlineto
            -197 -611 rlineto
            60 hlineto
            198 611 rlineto
            return
          </CharString>
          <CharString index="57">
            -26 callgsubr
            hintmask 11101010
            -22 callgsubr
            hintmask 11110100
            20 callgsubr
            hintmask 11101010
            -26 callsubr
            hintmask 11110100
            4 79 callgsubr
            -43 callgsubr
          </CharString>
          <CharString index="58">
            -56 callsubr
            -194 hlineto
            return
          </CharString>
          <CharString index="59">
            -85 -16 -58 -322 rlineto
            hintmask 01111000
            -105 callsubr
            -36 callsubr
            vhcurveto
            return
          </CharString>
          <CharString index="60">
            2 -9 49 415 50 hstem
            33 86 259 86 return
          </CharString>
          <CharString index="61">
            -29 callsubr
            -247 hlineto
            return
          </CharString>
          <CharString index="62">
            6 33 rlineto
            return
          </CharString>
          <CharString index="63">
            -47 -104 callgsubr
            return
          </CharString>
          <CharString index="64">
            -44 -28 -81 -57 -37 hhcurveto
            -40 -25 22 69 139 56 176 130 33 31 -10 -16 15 hvcurveto
            return
          </CharString>
          <CharString index="65">
            409 -40 64 -32 57 -57 61 -18 55 330 73 -34 46 hstemhm
            34 86 201 76 hintmask 10001011
            420 201 rmoveto
            92 508 rlineto
            11 -7 7 -11 -28 -63 -15 -20 -58 vhcurveto
            5 -23 76 -9 rlineto
            hintmask 00100111
            -33 -164 rlineto
            5 -21 -21 4 -35 hhcurveto
            -154 -128 -132 -243 -107 45 -31 60 48 96 41 60 44 hvcurveto
            hintmask 01001011
            -25 callsubr
            hintmask 10001011
            4 60 9 36 10 56 rrcurveto
            return
          </CharString>
          <CharString index="66">
            rmoveto
            -5 hlineto
            -222 -121 -200 -211 -107 43 -83 103 -25 hvcurveto
            -31 -96 rlineto
            61 hlineto
            28 87 rlineto
            16 hlineto
            224 117 201 214 108 -44 83 -110 23 hvcurveto
            29 88 rlineto
            -61 hlineto
            -27 -82 rlineto
            -258 -409 rmoveto
            94 44 267 197 vhcurveto
            2 hlineto
            -170 -526 rlineto
            -54 26 -19 62 77 vvcurveto
            383 184 rmoveto
            -144 -64 -218 -180 vhcurveto
            -10 hlineto
            171 529 rlineto
            63 -24 20 -66 -77 vvcurveto
            endchar
          </CharString>
          <CharString index="67">
            -85 callsubr
            -44 -27 -9 -39 vhcurveto
            return
          </CharString>
          <CharString index="68">
            1 3 71 81 17 hvcurveto
            return
          </CharString>
          <CharString index="69">
            rmoveto
            -8 -52 rlineto
            217 hlineto
            8 52 rlineto
            -217 hlineto
            return
          </CharString>
          <CharString index="70">
            -49 callsubr
            -6 -33 return
          </CharString>
          <CharString index="71">
            64 86 37 65 56 return
          </CharString>
          <CharString index="72">
            -8 57 -57 61 406 46 hstemhm
            34 86 201 76 hintmask 10111000
            420 201 rmoveto
            92 508 rlineto
            11 -7 7 -11 -28 -63 -15 -20 -58 vhcurveto
            5 -23 76 -9 -33 -164 rlineto
            5 -21 -21 4 -35 hhcurveto
            -154 -128 -132 -243 hvcurveto
            hintmask 01111000
            -107 45 -31 60 48 96 41 60 44 vhcurveto
            hintmask 10111000
            -25 callsubr
            4 60 9 36 10 56 rrcurveto
            return
          </CharString>
          <CharString index="73">
            -32 callgsubr
            endchar
          </CharString>
          <CharString index="74">
            70 hlineto
            19 96 rlineto
            60 hlineto
            9 46 rlineto
            -60 hlineto
            56 287 -55 5 -288 -305 5 -33 rlineto
            203 hlineto
            -19 -96 rlineto
            -117 142 rmoveto
            183 195 -38 -195 rlineto
            -145 hlineto
            endchar
          </CharString>
          <CharString index="75">
            637 -100 callsubr
            return
          </CharString>
          <CharString index="76">
            -9 48 539 48 86 callgsubr
            return
          </CharString>
          <CharString index="77">
            427 rmoveto
            45 231 -33 8 -16 -24 rlineto
            0 -39 9 -30 -130 -86 -101 -167 -87 44 -27 48 33 49 25 39 34 vhcurveto
            0 -3 -26 -4 vvcurveto
            -20 10 -14 26 21 25 7 15 43 vhcurveto
            29 -56 vlineto
            0 4 48 11 59 vhcurveto
            -173 -105 rmoveto
            -26 -16 14 48 112 44 114 90 14 19 -7 -8 11 hvcurveto
            -14 -71 -24 -130 0 vvcurveto
            -32 -20 -52 -40 -26 hhcurveto
            endchar
          </CharString>
          <CharString index="78">
            89 -56 callsubr
            return
          </CharString>
          <CharString index="79">
            29 151 55 269 14 vvcurveto
            endchar
          </CharString>
          <CharString index="80">
            -68 callsubr
            hintmask 11011100
            -82 callgsubr
            return
          </CharString>
          <CharString index="81">
            43 9 37 19 40 hhcurveto
            37 17 -21 -29 -43 -28 -30 -52 -25 hvcurveto
            -38 21 -23 24 30 vvcurveto
            return
          </CharString>
          <CharString index="82">
            0 -6 -54 -6 vvcurveto
            -26 11 -15 34 26 30 9 19 55 vhcurveto
            29 -80 vlineto
            return
          </CharString>
          <CharString index="83">
            -100 callgsubr
            hintmask 01111100
            return
          </CharString>
          <CharString index="84">
            -94 callgsubr
            -34 hlineto
            -59 callgsubr
            return
          </CharString>
          <CharString index="85">
            -52 callsubr
            5 callgsubr
            hintmask 10110000
            return
          </CharString>
          <CharString index="86">
            33 545 33 return
          </CharString>
          <CharString index="87">
            -158 117 return
          </CharString>
          <CharString index="88">
            rmoveto
            164 171 -6 17 rlineto
            -81 hlineto
            -99 -176 22 -12 rlineto
            return
          </CharString>
          <CharString index="89">
            115 -10 51 537 33 return
          </CharString>
          <CharString index="90">
            rmoveto
            113 hlineto
            -73 -374 rlineto
            71 hlineto
            84 430 -190 -28 -5 -28 rlineto
            return
          </CharString>
          <CharString index="91">
            hlineto
            6 33 return
          </CharString>
          <CharString index="92">
            rmoveto
            -5 callgsubr
            19 callsubr
            -258 -96 callgsubr
            return
          </CharString>
          <CharString index="93">
            rmoveto
            105 -175 24 7 -55 183 rlineto
            -64 hlineto
            -10 -15 rlineto
            return
          </CharString>
          <CharString index="94">
            82 5 75 38 63 vvcurveto
            -40 callsubr
            -85 -16 -58 -322 rlineto
            return
          </CharString>
          <CharString index="95">
            rmoveto
            -32 -27 -26 -32 -31 27 -26 32 31 27 26 31 32 -27 26 -31 hvcurveto
            return
          </CharString>
          <CharString index="96">
            0 35 188 43 return
          </CharString>
          <CharString index="97">
            54 60 -7 -59 -73 -58 -32 -65 -26 -28 3 16 -41 hvcurveto
            -18 -39 rlineto
            -14 34 44 -10 47 hhcurveto
            106 82 51 99 49 -32 32 -55 10 hvcurveto
            return
          </CharString>
          <CharString index="98">
            12 callsubr
            -53 -239 -22 vvcurveto
            -26 13 -16 33 25 39 9 19 56 vhcurveto
            30 -85 vlineto
            return
          </CharString>
          <CharString index="99">
            -65 vvcurveto
            -70 38 -12 35 -36 callsubr
            vhcurveto
            return
          </CharString>
          <CharString index="100">
            -9 -16 callgsubr
            return
          </CharString>
          <CharString index="101">
            rmoveto
            41 22 -23 -33 -59 -42 -47 -62 -51 hvcurveto
            -174 -143 rlineto
            -38 300 vlineto
            29 102 -33 2 -38 -55 rlineto
            -178 hlineto
            134 103 rlineto
            77 59 64 68 71 vvcurveto
            65 -53 24 -69 -52 -55 -17 -20 -40 vhcurveto
            11 -35 rlineto
            17 42 93 callgsubr
          </CharString>
          <CharString index="102">
            vstem
            353 436 -81 callgsubr
            return
          </CharString>
          <CharString index="103">
            611 -90 callgsubr
            return
          </CharString>
          <CharString index="104">
            hlineto
            -106 callgsubr
            return
          </CharString>
          <CharString index="105">
            rmoveto
            -50 -55 -18 -20 -39 hvcurveto
            10 -35 rlineto
            18 40 36 9 24 hhcurveto
            41 19 -18 -27 -52 -44 -45 -88 -10 hvcurveto
            -3 -33 rlineto
            return
          </CharString>
          <CharString index="106">
            rmoveto
            -32 -28 -27 -33 -33 28 -24 32 31 29 24 33 33 -29 27 -31 hvcurveto
            endchar
          </CharString>
          <CharString index="107">
            hintmask 10111000
            -92 callgsubr
            return
          </CharString>
          <CharString index="108">
            -93 -71 callsubr
            return
          </CharString>
          <CharString index="109">
            -15 callgsubr
            497 113 hstemhm
            73 81 43 114 34 157 -111 115 hintmask 10111010
            return
          </CharString>
          <CharString index="110">
            58 0 44 hstem
            430 100 vstem
            22 hmoveto
            508 38 hlineto
            -229 573 rlineto
            -45 hlineto
            -234 -611 rlineto
            76 44 rmoveto
            170 457 162 -437 rlineto
            -20 -332 vlineto
            endchar
          </CharString>
          <CharString index="111">
            72 -49 callsubr
            return
          </CharString>
          <CharString index="112">
            46 callsubr
            hintmask 11111100
            195 hmoveto
            32 -28 26 -30 -30 -27 -26 -32 -30 27 -25 30 30 28 25 30 vhcurveto
            return
          </CharString>
          <CharString index="113">
            92 -11 48 217 34 290 49 hstem
            35 90 360 37 vstem
            return
          </CharString>
          <CharString index="114">
            -66 callsubr
            endchar
          </CharString>
          <CharString index="115">
            rmoveto
            -16 200 rlineto
            28 hlineto
            48 -14 -37 -186 rlineto
            -23 hlineto
            return
          </CharString>
          <CharString index="116">
            -20 callgsubr
            14 32 rlineto
            return
          </CharString>
          <CharString index="117">
            -29 -64 -15 -20 -56 return
          </CharString>
          <CharString index="118">
            -15 callgsubr
            hstemhm
            75 71 callgsubr
            return
          </CharString>
          <CharString index="119">
            10 callsubr
            hvcurveto
            4 -25 76 -7 rlineto
            -28 -144 return
          </CharString>
          <CharString index="120">
            -28 callgsubr
            hstem
            return
          </CharString>
          <CharString index="121">
            -45 -48 20 81 139 87 73 67 42 48 -17 -81 -136 -85 -79 -66 hvcurveto
            return
          </CharString>
          <CharString index="122">
            72 -37 callsubr
            rlineto
            return
          </CharString>
          <CharString index="123">
            -41 -210 rrcurveto
            -15 -79 -11 -60 -46 vvcurveto
            -79 30 -39 85 -26 vhcurveto
            16 24 rlineto
            -50 24 -16 44 58 vvcurveto
            47 12 63 13 69 vhcurveto
            endchar
          </CharString>
          <CharString index="124">
            -56 callsubr
            -246 hlineto
            -6 -33 return
          </CharString>
          <CharString index="125">
            114 80 115 return
          </CharString>
          <CharString index="126">
            -61 callsubr
            -84 return
          </CharString>
          <CharString index="127">
            92 15 24 171 rlineto
            -6 20 21 -3 35 hhcurveto
            203 74 176 192 103 -45 35 -58 -59 -75 -51 -61 -51 hvcurveto
            return
          </CharString>
          <CharString index="128">
            rmoveto
            34 hlineto
            26 55 rlineto
            186 hlineto
            -250 -383 74 -6 242 395 -4 39 rlineto
            -295 hlineto
            -13 -100 rlineto
            return
          </CharString>
          <CharString index="129">
            -33 0 56 522 33 hstem
            -4 430 vstem
            return
          </CharString>
          <CharString index="130">
            765 -63 callgsubr
            return
          </CharString>
          <CharString index="131">
            49 -167 51 138 64 return
          </CharString>
          <CharString index="132">
            124 -20 17 89 -131 -19 43 128 rlineto
            -86 hlineto
            -6 -128 -123 19 -17 -89 131 20 return
          </CharString>
          <CharString index="133">
            -124 -211 11 -17 79 18 55 205 -21 5 rlineto
            return
          </CharString>
          <CharString index="134">
            119 rmoveto
            30 50 -274 139 274 139 -30 50 -353 -189 353 -189 rlineto
            return
          </CharString>
          <CharString index="135">
            308 rmoveto
            -353 189 -29 -50 273 -139 -273 -139 29 -50 353 189 rlineto
            return
          </CharString>
          <CharString index="136">
            hstem
            100 79 187 74 181 72 vstem
            return
          </CharString>
          <CharString index="137">
            -99 -19 -34 -180 -1 hhcurveto
            endchar
          </CharString>
          <CharString index="138">
            hvcurveto
            4 -97 rlineto
            35 hlineto
            return
          </CharString>
          <CharString index="139">
            -45 callgsubr
            262 hlineto
            218 118 204 198 25 callgsubr
            hvcurveto
            return
          </CharString>
          <CharString index="140">
            21 vvcurveto
            13 -4 10 -15 -29 -63 -14 -21 -57 vhcurveto
            4 return
          </CharString>
          <CharString index="141">
            -69 -31 -30 -41 -10 -50 rrcurveto
            return
          </CharString>
          <CharString index="142">
            vhcurveto
            4 -25 76 -7 return
          </CharString>
          <CharString index="143">
            -96 callgsubr
            -83 return
          </CharString>
          <CharString index="144">
            33 -20 callsubr
            41 56 221 46 236 52 hstem
            137 120 196 38 vstem
            return
          </CharString>
          <CharString index="145">
            426 rmoveto
            -40 -22 52 -155 -112 -155 31 -23 169 178 -100 177 rlineto
            return
          </CharString>
          <CharString index="146">
            54 21 56 44 65 vvcurveto
            50 -46 25 -58 vhcurveto
            endchar
          </CharString>
          <CharString index="147">
            -125 -20 -21 0 6 -45 hvcurveto
            -7 -46 rlineto
            -8 40 25 -2 50 hhcurveto
            171 112 return
          </CharString>
          <CharString index="148">
            rmoveto
            113 hlineto
            -72 -373 rlineto
            71 hlineto
            83 430 -189 -28 -6 -29 rlineto
            endchar
          </CharString>
          <CharString index="149">
            18 -20 callsubr
            33 58 -58 61 399 48 return
          </CharString>
          <CharString index="150">
            56 callsubr
            76 -8 return
          </CharString>
          <CharString index="151">
            14 -6 8 -13 return
          </CharString>
          <CharString index="152">
            638 rmoveto
            32 -27 26 -30 -30 -27 -26 -32 -30 27 -25 30 30 27 25 30 vhcurveto
            return
          </CharString>
          <CharString index="153">
            726 rmoveto
            32 -27 26 -30 -30 -27 -26 -32 -30 27 -25 30 30 27 25 30 vhcurveto
            return
          </CharString>
          <CharString index="154">
            -43 -15 32 45 16 1 17 4 19 hvcurveto
            endchar
          </CharString>
          <CharString index="155">
            2 -9 49 415 50 152 26 hstemhm
            33 86 155 28 64 55 -43 86 return
          </CharString>
          <CharString index="156">
            -67 callgsubr
            262 hlineto
            218 118 204 198 return
          </CharString>
          <CharString index="157">
            hvcurveto
            5 24 3 25 23 vvcurveto
            71 -28 60 -94 -169 -18 -142 -32 -58 35 return
          </CharString>
          <CharString index="158">
            669 rmoveto
            -61 hlineto
            -238 -737 rlineto
            60 hlineto
            239 737 rlineto
            endchar
          </CharString>
          <CharString index="159">
            42 90 383 88 return
          </CharString>
          <CharString index="160">
            -13 -56 -11 -55 -13 vvcurveto
            -31 19 -12 30 22 29 8 14 29 vhcurveto
            29 vlineto
            return
          </CharString>
          <CharString index="161">
            -7 callsubr
            149 26 hstemhm
            42 90 226 28 64 55 10 88 return
          </CharString>
          <CharString index="162" raw="1">
            13b8491d 0b  
          </CharString>
          <CharString index="163">
            -55 vhcurveto
            4 -25 return
          </CharString>
          <CharString index="164">
            -124 -138 834 hstem
            149 73 vstem
            222 696 rmoveto
            -73 return
          </CharString>
          <CharString index="165">
            rmoveto
            114 30 88 58 69 hhcurveto
            10 17 -2 -3 20 hvcurveto
            12 36 rlineto
            return
          </CharString>
          <CharString index="166">
            rmoveto
            -93 -22 -46 -220 26 -5 127 228 -14 19 rlineto
            endchar
          </CharString>
          <CharString index="167">
            40 hstem
            30 72 172 77 vstem
            124 return
          </CharString>
          <CharString index="168">
            11 -4 11 -15 vhcurveto
            return
          </CharString>
          <CharString index="169">
            243 13 callgsubr
            return
          </CharString>
          <CharString index="170">
            245 13 callgsubr
            return
          </CharString>
          <CharString index="171">
            73 226.5 79.5 hstem
            53 462 vstem
            return
          </CharString>
          <CharString index="172">
            556 rmoveto
            75 16 34 161 -28 8 -96 -168 15 -17 rlineto
            return
          </CharString>
          <CharString index="173">
            -36 callsubr
            hvcurveto
            endchar
          </CharString>
          <CharString index="174">
            2 -92 132 415 134 hstem
            33 85 261 85 vstem
            return
          </CharString>
          <CharString index="175">
            -167 55 103 58 392.5 63.5 return
          </CharString>
          <CharString index="176">
            78 hintmask 00000000
            hintmask 11101000
            264 return
          </CharString>
          <CharString index="177">
            69 313 68 hstem
            30 48 245 return
          </CharString>
          <CharString index="178">
            -252 hlineto
            -6 -33 80 -20 return
          </CharString>
          <CharString index="179">
            -9 49 419 46 hstem
            return
          </CharString>
          <CharString index="180">
            70 88 callsubr
            return
          </CharString>
          <CharString index="181">
            rlineto
            -229 hlineto
            -6 return
          </CharString>
          <CharString index="182">
            rmoveto
            -205 hlineto
            260 307 -55 -307 rlineto
            endchar
          </CharString>
          <CharString index="183">
            hhcurveto
            -162 -118 -133 -229 -100 47 -52 103 return
          </CharString>
          <CharString index="184">
            hlineto
            46 235 rlineto
            3 17 29 3 39 hhcurveto
            endchar
          </CharString>
          <CharString index="185">
            hstem
            140 75 175 72 vstem
            return
          </CharString>
          <CharString index="186">
            rmoveto
            54 261 rlineto
            return
          </CharString>
          <CharString index="187">
            -167 54 553 53 173 61 hstem
            -136 return
          </CharString>
          <CharString index="188">
            63 35 hvcurveto
            -32 20 rlineto
            -40 -25 -19 -14 -37 hhcurveto
            return
          </CharString>
          <CharString index="189">
            -19 -98 -506 return
          </CharString>
          <CharString index="190">
            57 392 66 return
          </CharString>
          <CharString index="191">
            55 -11 callsubr
            hstem
            -32 554 vstem
            return
          </CharString>
          <CharString index="192">
            63 49 79 46 44 hhcurveto
            19 14 -9 -23 hvcurveto
            return
          </CharString>
          <CharString index="193">
            211 -28 callgsubr
            return
          </CharString>
          <CharString index="194">
            -143 -28 callgsubr
            return
          </CharString>
          <CharString index="195">
            -9 83 callsubr
            return
          </CharString>
          <CharString index="196">
            70 -30 70 hstemhm
            return
          </CharString>
          <CharString index="197">
            72 callgsubr
            59 373 vstem
            return
          </CharString>
          <CharString index="198">
            -190 -149 55 672 33 hstem
            -88 return
          </CharString>
          <CharString index="199">
            vhcurveto
            3 -25 53 -6 -64 -326 80 11 return
          </CharString>
          <CharString index="200">
            -5 -6 22 hvcurveto
            return
          </CharString>
        <CharString name=".notdef">
          -271 endchar
        </CharString>
        <CharString name="A">
          84 callsubr
          356 223 -102 callgsubr
        </CharString>
        <CharString name="AE">
          53 callgsubr
          417 309 -48 callgsubr
        </CharString>
        <CharString name="AEacute">
          53 callgsubr
          401 651 -97 callgsubr
          16 -342 -48 callgsubr
        </CharString>
        <CharString name="Aacute">
          92 -11 callsubr
          hstem
          -33 554 vstem
          284 651 -97 callgsubr
          71 -428 -102 callgsubr
        </CharString>
        <CharString name="Abreve">
          92 -11 callsubr
          403 54 hstem
          266 36 vstem
          367 669 -103 callsubr
          -12 -64 callgsubr
          endchar
        </CharString>
        <CharString name="Acircumflex">
          92 -11 callsubr
          hstem
          -33 554 vstem
          480 650 rmoveto
          26 19 -79 135 rlineto
          -60 hlineto
          -139 -135 20 -19 139 83 93 -83 rlineto
          -125 -427 -102 callgsubr
        </CharString>
        <CharString name="Adieresis">
          92 -11 callsubr
          405 113 hstem
          226 18 callsubr
          vstem
          340 726 -100 callgsubr
          -180 -503 -102 callgsubr
        </CharString>
        <CharString name="Agrave">
          92 -11 callsubr
          hstem
          -33 554 vstem
          232 754 -79 callsubr
          123 -531 -102 callgsubr
        </CharString>
        <CharString name="Amacron">
          92 -11 callsubr
          423 54 hstem
          -33 554 vstem
          253 743 -38 callgsubr
          102 -520 -102 callgsubr
        </CharString>
        <CharString name="Aogonek">
          92 -236 44 192 35 192 44 hstem
          238 69 vstem
          358 227 rmoveto
          19 -171 rlineto
          1 -12 1 -2 -7 -31 -141 -64 -105 -71 callgsubr
          62 63 83 49 hvcurveto
          100 hlineto
          6 35 -62 15 -67 574 -58 -13 -294 -563 -72 -13 -5 -35 rlineto
          190 hlineto
          9 37 -65 10 94 180 rlineto
          163 hlineto
          -140 44 rmoveto
          113 217 23 -217 rlineto
          -136 hlineto
          endchar
        </CharString>
        <CharString name="Aring">
          92 -11 callsubr
          373 35 111 35 hstem
          286 54 93 54 vstem
          371 639 -65 callgsubr
          -22 -451 -102 callgsubr
        </CharString>
        <CharString name="Aringacute">
          55 -11 callsubr
          373 35 111 35 hstem
          268 54 93 54 vstem
          349 831 -97 callgsubr
          4 -192 -65 callgsubr
          -3 -451 -102 callgsubr
        </CharString>
        <CharString name="Atilde">
          92 -11 callsubr
          404 40 callgsubr
          -33 563 hintmask 11101000
          530 -63 callsubr
          -175 -542 -102 callgsubr
        </CharString>
        <CharString name="B">
          35 0 41 258 38 231 43 hstemhm
          373 86 -48 84 hintmask 11110000
          339 323 rmoveto
          hintmask 11101000
          88 17 68 60 96 vvcurveto
          66 -51 49 -118 vhcurveto
          -224 hlineto
          -6 -33 79 -3 callgsubr
          -87 -71 callsubr
          230 hlineto
          hintmask 11110000
          142 103 85 109 68 -39 42 -81 19 hvcurveto
          hintmask 11101000
          -83 14 rmoveto
          -45 hlineto
          43 224 rlineto
          5 21 16 2 24 hhcurveto
          59 37 -26 -57 -99 -72 -49 -83 hvcurveto
          -102 -288 rmoveto
          49 250 rlineto
          39 hlineto
          hintmask 11110000
          85 46 -34 -64 -117 -91 -43 -72 hvcurveto
          hintmask 11101000
          -18 -20 2 6 -18 hvcurveto
          endchar
        </CharString>
        <CharString name="C">
          33 callgsubr
          429 23 -78 callsubr
          -128 63 -92 157 71 49 12 20 54 hvcurveto
          endchar
        </CharString>
        <CharString name="Cacute">
          26 73 callgsubr
          22 90 349 33 vstem
          299 651 -97 callgsubr
          117 -628 -78 callsubr
          -128 63 -92 157 71 49 12 20 54 hvcurveto
          endchar
        </CharString>
        <CharString name="Cacute.loclPLK">
          33 callgsubr
          360 647 rmoveto
          -60 callgsubr
          69 -624 -78 callsubr
          -128 63 -92 157 71 49 12 20 54 hvcurveto
          endchar
        </CharString>
        <CharString name="Ccaron">
          26 73 callgsubr
          22 90 349 33 vstem
          270 804 -83 callgsubr
          146 -781 -78 callsubr
          -128 63 -92 157 71 49 12 20 54 hvcurveto
          endchar
        </CharString>
        <CharString name="Ccedilla">
          26 32 callgsubr
          35 -16 callgsubr
          hstem
          22 90 143 65 141 33 vstem
          416 23 -78 callsubr
          -121 56 -89 138 -9 hvcurveto
          -30 -58 -73 callsubr
          19 35 68 1 48 11 53 20 rlinecurve
          endchar
        </CharString>
        <CharString name="Ccircumflex">
          33 callgsubr
          498 650 -96 callgsubr
          -69 -627 -78 callsubr
          -128 63 -92 157 71 49 12 20 54 hvcurveto
          endchar
        </CharString>
        <CharString name="Cdotaccent">
          22 -7 callsubr
          42 117 hstemhm
          35 90 217 120 12 33 hintmask 11111000
          462 -31 callgsubr
          -33 -702 rmoveto
          14 115 rlineto
          -34 hlineto
          -40 -84 rlineto
          -11 -36 -31 -4 -25 hhcurveto
          -114 -38 71 107 171 78 190 173 hvcurveto
          hintmask 11111100
          45 27 -4 -8 26 hvcurveto
          -97 33 vlineto
          35 130 rlineto
          15 -37 -47 12 -79 hhcurveto
          -212 -132 -196 -219 -128 63 -92 157 hvcurveto
          hintmask 11111000
          71 49 12 20 54 hvcurveto
          endchar
        </CharString>
        <CharString name="D">
          127 0 41 523 47 hstem
          499 88 vstem
          359 611 -76 callgsubr
          endchar
        </CharString>
        <CharString name="Dcaron">
          0 41 523 47 hstem
          506 88 vstem
          262 804 -83 callgsubr
          104 -193 -76 callgsubr
          endchar
        </CharString>
        <CharString name="Dcroat">
          0 41 236 46 241 47 hstem
          506 88 vstem
          61 -19 callgsubr
          111 hlineto
          9 46 rlineto
          -111 77 callsubr
        </CharString>
        <CharString name="E">
          33 -40 callgsubr
          hstem
          453 38 vstem
          388 389 -103 callgsubr
          endchar
        </CharString>
        <CharString name="Eacute">
          44 -40 callgsubr
          hstem
          460 38 vstem
          272 651 -97 callgsubr
          123 -262 -103 callgsubr
          endchar
        </CharString>
        <CharString name="Ebreve">
          33 -40 callgsubr
          58 54 hstem
          247 36 170 38 vstem
          348 669 -103 callsubr
          40 -280 -103 callgsubr
          endchar
        </CharString>
        <CharString name="Ecaron">
          44 -40 callgsubr
          hstem
          460 38 vstem
          252 804 -83 callgsubr
          143 -415 -103 callgsubr
          endchar
        </CharString>
        <CharString name="Ecircumflex">
          44 -40 callgsubr
          hstem
          460 38 vstem
          446 650 -96 callgsubr
          -51 -261 -103 callgsubr
          endchar
        </CharString>
        <CharString name="Edieresis">
          44 -40 callgsubr
          60 113 hstemhm
          184 18 callsubr
          -33 38 hintmask 11111010
          298 5 callsubr
          -98 -337 rmoveto
          -59 callgsubr
          hintmask 11111010
          -55 callsubr
          -409 hlineto
          -98 callgsubr
          hintmask 11111100
          -34 hlineto
          endchar
        </CharString>
        <CharString name="Edotaccent">
          44 -40 callgsubr
          57 117 hstem
          287 120 53 38 vstem
          407 -31 callgsubr
          -12 -336 -103 callgsubr
          endchar
        </CharString>
        <CharString name="Egrave">
          44 -40 callgsubr
          hstem
          460 38 vstem
          224 754 -79 callsubr
          171 -365 -103 callgsubr
          endchar
        </CharString>
        <CharString name="Emacron">
          44 -40 callgsubr
          78 54 hstem
          460 38 vstem
          242 743 -38 callgsubr
          153 -354 -103 callgsubr
          endchar
        </CharString>
        <CharString name="Eng">
          181 -167 55 112 -21 callsubr
          hstem
          -14 719 vstem
          496 611 rmoveto
          -6 -33 76 -19 -83 -429 -249 481 rlineto
          -130 hlineto
          -6 -33 71 82 callsubr
          -79 -71 callsubr
          211 -16 callsubr
          -77 20 84 435 228 -446 rlineto
          -109 -13 -31 -45 -75 hhcurveto
          -28 -26 3 8 -28 hvcurveto
          -8 -37 rlineto
          -16 29 32 -13 43 hhcurveto
          104 51 51 179 34 hvcurveto
          96 496 81 -6 callgsubr
          -209 hlineto
          endchar
        </CharString>
        <CharString name="Eogonek">
          44 -236 44 192 56 221 46 236 52 hstem
          279 69 112 38 vstem
          -4 hmoveto
          398 hlineto
          -83 -60 -32 -61 -44 -71 callgsubr
          54 43 58 37 33 hvcurveto
          -23 callsubr
          -55 callsubr
          68 callgsubr
          endchar
        </CharString>
        <CharString name="Eth">
          0 41 236 46 241 47 hstem
          500 88 vstem
          55 -19 callgsubr
          112 hlineto
          9 46 rlineto
          -112 77 callsubr
        </CharString>
        <CharString name="Euro">
          -3 -6 53 170 43 69 43 195 52 hstem
          90 81 268 32 vstem
          183 307 rmoveto
          4 22 rlineto
          188 hlineto
          16 43 rlineto
          -193 hlineto
          165 45 61 30 76 hhcurveto
          26 15 -4 -5 16 hvcurveto
          4 -80 rlineto
          30 hlineto
          36 113 rlineto
          17 -37 -42 11 -55 hhcurveto
          -87 -107 -38 -209 -58 hvcurveto
          -66 hlineto
          -17 -43 rlineto
          71 hlineto
          -4 -22 -3 -17 -3 -16 -2 -14 rlinecurve
          -64 hlineto
          -16 -43 rlineto
          75 hlineto
          -1 -14 -1 -14 -12 vvcurveto
          -156 83 -27 94 49 39 8 17 38 vhcurveto
          41 vlineto
          -9 -35 -29 -4 -24 hhcurveto
          -104 -30 64 81 8 0 9 1 8 hvcurveto
          182 hlineto
          15 43 rlineto
          -194 hlineto
          2 14 3 17 3 16 rrcurveto
          endchar
        </CharString>
        <CharString name="F">
          -4 0 33 234 46 246 52 hstem
          452 39 vstem
          516 611 rmoveto
          68 callgsubr
          284 hlineto
          6 34 -113 20 42 213 rlineto
          136 hlineto
          5 -69 rlineto
          34 hlineto
          35 181 rlineto
          -34 hlineto
          -33 -66 rlineto
          -134 hlineto
          47 246 rlineto
          188 -80 39 hlineto
          25 132 rlineto
          endchar
        </CharString>
        <CharString name="G">
          6 callsubr
          483 567 rmoveto
          -95 callgsubr
          endchar
        </CharString>
        <CharString name="G_tilde.loclGUA">
          85 -11 48 217 34 290 49 43 40 callgsubr
          26 90 360 37 hintmask 11110100
          530 765 -27 callgsubr
          hintmask 11110110
          -56 -198 rmoveto
          -95 callgsubr
          endchar
        </CharString>
        <CharString name="Gbreve">
          85 -11 48 217 34 290 49 42 54 hstem
          26 90 162 36 162 37 vstem
          379 669 -103 callsubr
          95 -102 rmoveto
          -95 callgsubr
          endchar
        </CharString>
        <CharString name="Gcaron">
          6 callsubr
          285 804 -83 callgsubr
          198 -237 rmoveto
          -95 callgsubr
          endchar
        </CharString>
        <CharString name="Gcircumflex">
          6 callsubr
          483 650 36 callsubr
          vmoveto
          -95 callgsubr
          endchar
        </CharString>
        <CharString name="Gcommaaccent">
          85 -11 48 217 34 290 49 hstem
          26 90 360 37 vstem
          474 567 rmoveto
          -95 callgsubr
          -186 -598 -62 callsubr
        </CharString>
        <CharString name="Gdotaccent">
          92 -11 48 217 34 290 49 41 117 hstem
          35 90 202 120 38 37 vstem
          447 -31 callgsubr
          36 -158 rmoveto
          -95 callgsubr
          endchar
        </CharString>
        <CharString name="H">
          165 0 33 247 49 249 33 hstem
          -11 697 vstem
          208 329 -57 callgsubr
          endchar
        </CharString>
        <CharString name="Hbar">
          165 0 33 217 49 94 46 139 33 hstem
          -11 697 vstem
          680 578 rmoveto
          -45 callsubr
          -235 hlineto
          -6 -33 75 -19 -23 -120 rlineto
          -267 hlineto
          23 120 83 19 5 33 rlineto
          -235 hlineto
          -5 -33 74 -19 -23 -120 rlineto
          -76 hlineto
          -9 -46 rlineto
          76 hlineto
          -66 -340 -82 -71 callsubr
          235 -16 callsubr
          -75 20 38 197 rlineto
          267 hlineto
          -38 -197 -82 -71 callsubr
          236 -16 callsubr
          -76 20 66 340 rlineto
          75 hlineto
          9 46 rlineto
          -75 hlineto
          23 120 82 19 rlineto
          -210 -279 rmoveto
          -267 hlineto
          18 94 rlineto
          267 hlineto
          -18 -94 rlineto
          endchar
        </CharString>
        <CharString name="Hcircumflex">
          165 0 33 247 49 249 33 hstem
          -11 697 vstem
          519 650 -96 callgsubr
          -311 -321 -57 callgsubr
          endchar
        </CharString>
        <CharString name="I">
          -167 13 callsubr
          -11 365 vstem
          107 611 -89 callsubr
          endchar
        </CharString>
        <CharString name="IJ">
          138 70 callgsubr
          -11 691 vstem
          107 611 -89 callsubr
          221 -760 rmoveto
          -72 callsubr
        </CharString>
        <CharString name="Iacute">
          87 callsubr
          hstem
          -5 374 vstem
          155 651 -97 callgsubr
          -42 -40 -89 callsubr
          endchar
        </CharString>
        <CharString name="Iacute_J.loclNLD">
          138 70 callgsubr
          -11 745 vstem
          203 651 -97 callgsubr
          317 hmoveto
          214 103 rlineto
          18 vlineto
          -76 28 -154 -130 16 -19 rlineto
          -413 -40 -89 callsubr
          221 -760 rmoveto
          -72 callsubr
        </CharString>
        <CharString name="Ibreve">
          -167 -28 callgsubr
          58 54 hstem
          147 36 vstem
          248 669 -103 callsubr
          -141 -58 -89 callsubr
          endchar
        </CharString>
        <CharString name="Icircumflex">
          87 callsubr
          hstem
          -5 391 vstem
          360 650 -96 callgsubr
          -247 -39 -89 callsubr
          endchar
        </CharString>
        <CharString name="Idieresis">
          87 callsubr
          60 113 hstem
          99 18 callsubr
          vstem
          213 726 -100 callgsubr
          -295 -115 -89 callsubr
          endchar
        </CharString>
        <CharString name="Idotaccent">
          87 callsubr
          57 117 hstem
          194 120 vstem
          314 -31 callgsubr
          -201 -114 -89 callsubr
          endchar
        </CharString>
        <CharString name="Igrave">
          87 callsubr
          hstem
          -5 374 vstem
          139 754 -79 callsubr
          -26 -143 -89 callsubr
          endchar
        </CharString>
        <CharString name="Imacron">
          87 callsubr
          86 52 hstem
          -5 374 vstem
          152 749 -38 callsubr
          -39 -138 -89 callsubr
          endchar
        </CharString>
        <CharString name="Iogonek">
          -143 -236 44 192 -21 callsubr
          hstem
          61 69 vstem
          113 611 rmoveto
          -6 -33 -75 callsubr
          190 hlineto
          -85 -46 -39 -65 -54 -71 callgsubr
          54 46 59 66 32 hvcurveto
          6 33 -81 20 98 505 -46 callsubr
          endchar
        </CharString>
        <CharString name="Itilde">
          87 callsubr
          59 40 callgsubr
          -5 410 hintmask 11101000
          405 -63 callsubr
          -292 -154 -89 callsubr
          endchar
        </CharString>
        <CharString name="J">
          91 callsubr
          440 vstem
          -149 vmoveto
          -72 callsubr
        </CharString>
        <CharString name="Jcircumflex">
          91 callsubr
          456 vstem
          342 650 -96 callgsubr
          -342 -799 rmoveto
          -72 callsubr
        </CharString>
        <CharString name="K">
          61 13 callsubr
          -11 611 vstem
          505 -17 callgsubr
          endchar
        </CharString>
        <CharString name="Kcommaaccent">
          68 13 callsubr
          -4 611 vstem
          512 -17 callgsubr
          -223 -31 -62 callsubr
        </CharString>
        <CharString name="L">
          -46 0 56 522 33 hstem
          -11 430 vstem
          391 hmoveto
          7 callsubr
        </CharString>
        <CharString name="Lacute">
          22 callsubr
          171 651 -97 callgsubr
          227 -651 7 callgsubr
        </CharString>
        <CharString name="Lcaron">
          22 callsubr
          159 804 -83 callgsubr
          239 -804 7 callgsubr
        </CharString>
        <CharString name="Lcommaaccent">
          22 callsubr
          398 hmoveto
          -66 callsubr
          -141 -31 -62 callsubr
        </CharString>
        <CharString name="Ldot">
          -46 0 56 322 115 85 33 hstem
          343 114 vstem
          391 hmoveto
          -66 callsubr
          66 436 11 callgsubr
        </CharString>
        <CharString name="Lslash">
          22 callsubr
          398 hmoveto
          28 147 rlineto
          -36 hlineto
          -41 -91 rlineto
          -181 hlineto
          48 245 120 62 -22 38 -88 -45 40 202 -46 callsubr
          -6 -33 80 -20 -48 -246 -107 -55 20 -39 76 39 -39 -204 -45 callgsubr
          402 hlineto
          endchar
        </CharString>
        <CharString name="M">
          299 13 callsubr
          -2 810 vstem
          209 hmoveto
          6 33 -79 20 103 458 71 -521 49 10 268 508 -73 -455 -45 callgsubr
          249 -16 callsubr
          -82 20 80 505 -29 callsubr
          -183 hlineto
          -255 -493 -67 493 rlineto
          -170 hlineto
          -6 -33 71 -19 -114 -506 -80 -71 callsubr
          211 hlineto
          endchar
        </CharString>
        <CharString name="N">
          181 13 callsubr
          -14 719 vstem
          496 -4 callsubr
          endchar
        </CharString>
        <CharString name="Nacute">
          42 callgsubr
          356 651 -97 callgsubr
          150 -40 -90 callgsubr
          endchar
        </CharString>
        <CharString name="Nacute.loclPLK">
          181 13 callsubr
          -14 719 vstem
          389 647 rmoveto
          -60 callgsubr
          107 -36 -90 callgsubr
          endchar
        </CharString>
        <CharString name="Ncaron">
          42 callgsubr
          317 804 -83 callgsubr
          189 -193 -90 callgsubr
          endchar
        </CharString>
        <CharString name="Ncommaaccent">
          42 callgsubr
          506 -4 callsubr
          -175 -642 -62 callsubr
        </CharString>
        <CharString name="Ntilde">
          86 callsubr
          59 40 callgsubr
          -4 719 hintmask 11101000
          590 -63 callsubr
          -84 -154 -90 callgsubr
          endchar
        </CharString>
        <CharString name="O">
          -31 callsubr
          385 626 -104 callsubr
          endchar
        </CharString>
        <CharString name="OE">
          402 -40 callgsubr
          hstem
          66 88 620 38 vstem
          286 hmoveto
          456 -92 callsubr
          -34 hlineto
          -33 -66 rlineto
          -136 hlineto
          46 236 rlineto
          188 -80 38 hlineto
          25 132 rlineto
          -415 hlineto
          -222 -134 -185 -211 -129 63 -86 157 hvcurveto
          24 48 rmoveto
          -104 -52 66 103 94 51 252 197 35 35 -3 -7 34 hvcurveto
          -96 -495 rlineto
          -8 -36 -31 -2 -33 hhcurveto
          endchar
        </CharString>
        <CharString name="Oacute">
          -31 callsubr
          349 651 -97 callgsubr
          36 -25 -104 callsubr
          endchar
        </CharString>
        <CharString name="Oacute.loclPLK">
          -31 callsubr
          361 647 rmoveto
          -60 callgsubr
          24 -21 -104 callsubr
          endchar
        </CharString>
        <CharString name="Obreve">
          -7 callsubr
          43 54 hstem
          42 90 161 36 186 88 vstem
          394 669 -103 callsubr
          -9 -43 -104 callsubr
          endchar
        </CharString>
        <CharString name="Ocircumflex">
          -31 callsubr
          500 650 -96 callgsubr
          -115 -24 -104 callsubr
          endchar
        </CharString>
        <CharString name="Odieresis">
          -7 callsubr
          45 113 hstemhm
          42 90 118 18 callsubr
          -44 88 hintmask 11111010
          364 5 callsubr
          hintmask 11111010
          -174 -100 -104 callsubr
          endchar
        </CharString>
        <CharString name="Ograve">
          -31 callsubr
          276 754 -79 callsubr
          109 -128 -104 callsubr
          endchar
        </CharString>
        <CharString name="Ohorn">
          34 callgsubr
          hintmask 00000000
          hintmask 11101000
          686 634 -69 callsubr
        </CharString>
        <CharString name="Ohungarumlaut">
          -31 callsubr
          266 647 rmoveto
          -60 callgsubr
          161 hmoveto
          -60 callgsubr
          -42 -21 -104 callsubr
          endchar
        </CharString>
        <CharString name="Omacron">
          -7 callsubr
          63 54 86 callgsubr
          293 743 -38 callgsubr
          92 -117 -104 callsubr
          endchar
        </CharString>
        <CharString name="Oslash">
          -31 callsubr
          390 626 -41 callsubr
        </CharString>
        <CharString name="Oslashacute">
          -31 callsubr
          281 651 -97 callgsubr
          109 -25 -41 callsubr
        </CharString>
        <CharString name="Otilde">
          -7 callsubr
          44 84 callgsubr
          568 765 rmoveto
          -5 callgsubr
          -61 callsubr
          -183 -139 -104 callsubr
          endchar
        </CharString>
        <CharString name="P">
          17 0 33 216 40 280 42 hstem
          420 87 vstem
          322 611 rmoveto
          -215 hlineto
          -7 -35 81 -22 -97 -501 -89 -71 callsubr
          271 hlineto
          6 34 -104 19 40 206 rlineto
          -7 25 26 -3 23 hhcurveto
          106 125 77 154 88 -72 43 -113 hvcurveto
          -113 -314 rmoveto
          51 262 rlineto
          6 19 25 4 18 hhcurveto
          58 40 -29 -67 -139 -90 -45 -66 -19 -19 1 7 -17 hvcurveto
          endchar
        </CharString>
        <CharString name="Q">
          135 -151 53 101 38 537 48 hstem
          35 88 387 86 vstem
          562 -126 rmoveto
          2 28 rlineto
          -76 hlineto
          -22 -96 48 53 -94 hvcurveto
          191 129 186 217 127 -61 93 -158 -214 -128 -190 -215 -105 47 -56 102 -62 hvcurveto
          164 -107 rlineto
          -37 57 20 -5 33 hhcurveto
          33 47 14 11 24 hvcurveto
          -299 167 rmoveto
          -110 -30 91 92 145 76 209 164 116 31 -86 -91 -89 -48 -271 -199 hvcurveto
          endchar
        </CharString>
        <CharString name="R">
          49 22 callgsubr
          hstem
          423 84 vstem
          366 -29 callgsubr
          endchar
        </CharString>
        <CharString name="Racute">
          53 22 callgsubr
          hstem
          431 84 vstem
          263 651 -97 callgsubr
          111 -651 rmoveto
          -90 callsubr
          endchar
        </CharString>
        <CharString name="Rcaron">
          53 22 callgsubr
          hstem
          431 84 vstem
          242 804 -83 callgsubr
          132 -804 rmoveto
          -90 callsubr
          endchar
        </CharString>
        <CharString name="Rcommaaccent">
          53 22 callgsubr
          hstem
          431 84 vstem
          374 -29 callgsubr
          13 -350 -62 callsubr
        </CharString>
        <CharString name="S">
          -21 -11 61 callgsubr
          39 -25 callgsubr
          159 -11 -93 callgsubr
          endchar
        </CharString>
        <CharString name="Sacute">
          -33 -11 61 callgsubr
          38 -25 callgsubr
          233 651 -97 callgsubr
          -75 -662 -93 callgsubr
          endchar
        </CharString>
        <CharString name="Sacute.loclPLK">
          -21 -11 61 callgsubr
          39 -25 callgsubr
          288 647 rmoveto
          -60 callgsubr
          -129 -658 -93 callgsubr
          endchar
        </CharString>
        <CharString name="Scaron">
          -33 -11 61 callgsubr
          38 -25 callgsubr
          218 804 -83 callgsubr
          -60 -815 -93 callgsubr
          endchar
        </CharString>
        <CharString name="Scedilla">
          -33 32 callgsubr
          33 61 callgsubr
          38 36.5 17.5 78 15 65 75 79 -11 37 hintmask 1111010100000000
          404 204 rmoveto
          60 -37 47 -51 24 vhcurveto
          -79 39 rlineto
          -43 19 -24 23 40 vvcurveto
          84 60 37 84 vhcurveto
          hintmask 1111010010000000
          23 37 -4 -6 17 31 callsubr
          35 130 rlineto
          17 -46 -51 10 -51 hhcurveto
          -153 -72 -83 -114 -72 53 -37 28 -13 hvcurveto
          hintmask 1111111100000000
          87 -41 rlineto
          52 -22 13 -37 -36 vvcurveto
          -78 -53 -56 -99 -41 -37 8 6 -19 vhcurveto
          -3 86 rlineto
          -35 hlineto
          -36 -118 41 -19 55 -10 47 -2 rlinecurve
          -29 -55 -73 callsubr
          18 34 rlineto
          hintmask 1111010100000000
          145 6 83 83 125 vvcurveto
          endchar
        </CharString>
        <CharString name="Scircumflex">
          -21 -11 61 callgsubr
          39 -25 callgsubr
          426 650 -96 callgsubr
          -267 -661 -93 callgsubr
          endchar
        </CharString>
        <CharString name="Scommaaccent">
          -33 -11 61 callgsubr
          38 -25 callgsubr
          158 -11 -93 callgsubr
          45 -20 -62 callsubr
        </CharString>
        <CharString name="T">
          5 0 33 526 52 hstem
          474 37 vstem
          79 611 -53 callsubr
          endchar
        </CharString>
        <CharString name="Tbar">
          5 0 33 253 46 227 52 hstem
          474 37 vstem
          511 471 rmoveto
          33 140 rlineto
          -465 hlineto
          -19 -140 rlineto
          34 hlineto
          36 88 rlineto
          133 hlineto
          -44 -227 rlineto
          -163 hlineto
          -8 -46 rlineto
          162 hlineto
          -45 -233 -105 -71 callsubr
          279 -16 callsubr
          -96 20 45 233 rlineto
          185 hlineto
          8 46 rlineto
          -184 hlineto
          44 227 rlineto
          133 -88 37 hlineto
          endchar
        </CharString>
        <CharString name="Tcaron">
          17 0 33 526 52 hstem
          488 37 vstem
          240 804 -83 callgsubr
          -147 -193 -53 callsubr
          endchar
        </CharString>
        <CharString name="Thorn">
          -23 0 33 108 37 255 40 105 33 hstem
          371 86 vstem
          107 611 rmoveto
          -6 -33 -75 callgsubr
          18 92 rlineto
          -4 21 19 0 19 hhcurveto
          100 119 68 143 81 -58 40 -111 hvcurveto
          -46 hlineto
          17 85 -46 callsubr
          172 -178 rmoveto
          50 42 -18 -74 -124 -73 -39 -71 -17 -14 0 2 -10 hvcurveto
          48 248 rlineto
          3 13 11 2 21 hhcurveto
          endchar
        </CharString>
        <CharString name="U">
          -18 callsubr
          hstem
          80 79 vstem
          507 236 rmoveto
          -14 callgsubr
          186 48 157 89 17 vhcurveto
          endchar
        </CharString>
        <CharString name="Uacute">
          19 callgsubr
          hstem
          103 79 vstem
          330 651 -97 callgsubr
          200 -415 rmoveto
          -14 callgsubr
          186 48 157 89 17 vhcurveto
          endchar
        </CharString>
        <CharString name="Ubreve">
          -18 callsubr
          58 54 hstem
          80 79 129 36 vstem
          389 669 -103 callsubr
          118 -433 rmoveto
          -14 callgsubr
          186 48 157 89 17 vhcurveto
          endchar
        </CharString>
        <CharString name="Ucircumflex">
          19 callgsubr
          hstem
          103 79 vstem
          514 650 -96 callgsubr
          16 -414 rmoveto
          -14 callgsubr
          186 48 157 89 17 vhcurveto
          endchar
        </CharString>
        <CharString name="Udieresis">
          19 callgsubr
          60 113 hstem
          103 79 84 18 callsubr
          vstem
          380 726 -100 callgsubr
          -45 -490 rmoveto
          -14 callgsubr
          186 48 157 89 17 vhcurveto
          endchar
        </CharString>
        <CharString name="Ugrave">
          19 callgsubr
          hstem
          103 79 vstem
          293 754 -79 callsubr
          237 -518 rmoveto
          -14 callgsubr
          186 48 157 89 17 vhcurveto
          endchar
        </CharString>
        <CharString name="Uhorn">
          -18 callsubr
          hstem
          80 79 509 82 vstem
          750 675 rmoveto
          -40 callsubr
          -160 -107 callgsubr
          63 323 62 15 rlineto
          66 13 52 35 53 vvcurveto
          endchar
        </CharString>
        <CharString name="Uhungarumlaut">
          19 callgsubr
          hstem
          103 79 vstem
          309 647 rmoveto
          -60 callgsubr
          161 hmoveto
          -60 callgsubr
          60 -411 rmoveto
          -14 callgsubr
          186 48 157 89 17 vhcurveto
          endchar
        </CharString>
        <CharString name="Umacron">
          19 callgsubr
          78 54 hstem
          103 79 vstem
          302 743 -38 callgsubr
          228 -507 rmoveto
          -14 callgsubr
          186 48 157 89 17 vhcurveto
          endchar
        </CharString>
        <CharString name="Uogonek">
          168 -236 44 182 51 537 33 hstemhm
          103 79 4 69 hintmask 11110000
          530 236 rmoveto
          -14 callgsubr
          6 7 0 1 6 vhcurveto
          hintmask 11101000
          -80 -52 -32 -62 -42 -71 callgsubr
          45 33 70 65 30 hvcurveto
          hintmask 11110000
          125 35 37 125 15 76 rrcurveto
          endchar
        </CharString>
        <CharString name="Uring">
          19 callgsubr
          28 35 111 35 hstemhm
          103 79 142 54 93 54 hintmask 00000000
          hintmask 11111110
          409 639 -65 callgsubr
          115 -438 rmoveto
          hintmask 11011110
          -14 callgsubr
          vhcurveto
          hintmask 11111110
          186 48 157 89 17 hvcurveto
          endchar
        </CharString>
        <CharString name="Utilde">
          19 callgsubr
          59 40 callgsubr
          109 79 hintmask 11101000
          573 -63 callsubr
          -37 -529 rmoveto
          -14 callgsubr
          186 48 157 89 17 vhcurveto
          endchar
        </CharString>
        <CharString name="V">
          60 578 33 hstem
          58 564 vstem
          424 578 rmoveto
          64 -20 -227 -457 -60 457 59 -56 callsubr
          -202 hlineto
          -6 -33 63 -20 79 -568 60 12 284 556 72 -56 callsubr
          -192 hlineto
          -44 callgsubr
          endchar
        </CharString>
        <CharString name="W">
          30 callgsubr
          643 578 -74 callgsubr
        </CharString>
        <CharString name="Wacute">
          30 callgsubr
          429 651 -97 callgsubr
          214 -73 -74 callgsubr
        </CharString>
        <CharString name="Wcircumflex">
          30 callgsubr
          579 650 -96 callgsubr
          64 -72 -74 callgsubr
        </CharString>
        <CharString name="Wdieresis">
          285 578 33 60 113 hstem
          329 18 callsubr
          vstem
          443 726 -100 callgsubr
          5 -148 -74 callgsubr
        </CharString>
        <CharString name="Wgrave">
          30 callgsubr
          308 754 -79 callsubr
          335 -176 -74 callgsubr
        </CharString>
        <CharString name="X">
          57 13 callsubr
          -33 642 vstem
          168 33 rmoveto
          -60 20 159 201 84 -202 -59 -19 -44 callgsubr
          209 -16 callsubr
          -60 19 -110 259 203 247 69 -37 callsubr
          59 -20 -158 -195 -78 195 57 -56 callsubr
          -204 hlineto
          -6 -33 59 -20 102 -251 -204 -254 -69 -71 callsubr
          195 hlineto
          -45 callsubr
          endchar
        </CharString>
        <CharString name="Y">
          45 13 callsubr
          67 530 vstem
          397 578 rmoveto
          -89 callgsubr
          -6 -33 rlineto
          endchar
        </CharString>
        <CharString name="Y.loclGUA">
          4 callgsubr
          hstemhm
          82 37 -27 78 hintmask 00000000
          hintmask 11110000
          121 -84 -84 callgsubr
        </CharString>
        <CharString name="Yacute">
          62 13 callsubr
          77 530 vstem
          282 651 -97 callgsubr
          125 -73 rmoveto
          -89 callgsubr
          -6 -33 rlineto
          endchar
        </CharString>
        <CharString name="Yacute.loclGUA">
          4 callgsubr
          hstemhm
          82 37 -27 78 hintmask 11101000
          336 651 -97 callgsubr
          hintmask 11110000
          -215 -735 -84 callgsubr
        </CharString>
        <CharString name="Ycircumflex">
          62 13 callsubr
          77 530 vstem
          470 650 -96 callgsubr
          -63 -72 rmoveto
          -89 callgsubr
          -6 -33 rlineto
          endchar
        </CharString>
        <CharString name="Ycircumflex.loclGUA">
          4 callgsubr
          hstemhm
          82 37 -27 78 hintmask 11101000
          505 650 -96 callgsubr
          hintmask 11110000
          -384 -734 -84 callgsubr
        </CharString>
        <CharString name="Ydieresis">
          62 -28 callgsubr
          60 113 hstem
          219 18 callsubr
          vstem
          333 726 -100 callgsubr
          -121 -148 rmoveto
          -89 callgsubr
          -6 -33 rlineto
          endchar
        </CharString>
        <CharString name="Ydieresis.loclGUA">
          169 -167 49 172 46 478 33 60 113 hstemhm
          106 37 -27 78 68 18 callsubr
          hintmask 11110111
          376 726 -100 callgsubr
          hintmask 11111011
          -426 -810 rmoveto
          -4 83 rlineto
          -35 hlineto
          -36 -116 rlineto
          -34 54 51 -16 74 hhcurveto
          143 89 65 159 31 hvcurveto
          97 502 82 19 6 33 74 callsubr
          -33 75 -19 -71 -365 rlineto
          -43 -26 -51 -51 -93 hhcurveto
          hintmask 11110111
          -78 -24 50 70 33 5 36 8 39 hvcurveto
          45 231 83 19 5 33 rlineto
          -235 hlineto
          -5 -33 74 -19 -44 -228 rlineto
          -8 -41 -6 -40 -36 vvcurveto
          -93 38 -67 128 70 60 26 35 39 vhcurveto
          -12 -57 rlineto
          -127 -24 -59 -49 -97 hhcurveto
          hintmask 11111011
          -38 -46 13 21 -30 hvcurveto
          endchar
        </CharString>
        <CharString name="Ygrave">
          62 13 callsubr
          77 530 vstem
          233 754 -79 callsubr
          174 -176 rmoveto
          -89 callgsubr
          -6 -33 rlineto
          endchar
        </CharString>
        <CharString name="Ygrave.loclGUA">
          4 callgsubr
          hstemhm
          82 37 -27 78 hintmask 11101000
          244 754 -79 callsubr
          hintmask 11110000
          -123 -838 -84 callgsubr
        </CharString>
        <CharString name="Z">
          74 callgsubr
          hstem
          11 513 vstem
          448 147 -80 callsubr
          endchar
        </CharString>
        <CharString name="Zacute">
          74 callgsubr
          hstem
          -2 513 vstem
          232 651 -97 callgsubr
          203 -504 -80 callsubr
          endchar
        </CharString>
        <CharString name="Zacute.loclPLK">
          74 callgsubr
          hstem
          11 513 vstem
          307 647 rmoveto
          -60 callgsubr
          141 -500 -80 callsubr
          endchar
        </CharString>
        <CharString name="Zcaron">
          74 callgsubr
          hstem
          -2 513 vstem
          228 804 -83 callgsubr
          207 -657 -80 callsubr
          endchar
        </CharString>
        <CharString name="Zdotaccent">
          74 callgsubr
          57 117 hstem
          257 120 vstem
          377 -31 callgsubr
          58 -578 -80 callsubr
          endchar
        </CharString>
        <CharString name="a">
          -22 callsubr
          408 202 rmoveto
          -94 callsubr
        </CharString>
        <CharString name="aacute">
          -22 callsubr
          238 558 -97 callgsubr
          170 -356 rmoveto
          -94 callsubr
        </CharString>
        <CharString name="abreve">
          -52 callsubr
          81 54 hstemhm
          34 84 92 36 63 157 hintmask 10111100
          311 581 -103 callsubr
          97 -379 -83 callsubr
          hintmask 01111110
          -72 callgsubr
          hintmask 10111110
          -88 callsubr
          hintmask 10111100
          -39 callgsubr
          hintmask 01111100
          -99 callgsubr
          endchar
        </CharString>
        <CharString name="acircumflex">
          -22 callsubr
          408 -77 callsubr
          -350 vmoveto
          -94 callsubr
        </CharString>
        <CharString name="acute">
          -240 558 149 hstem
          84 230 vstem
          100 558 -97 callgsubr
          endchar
        </CharString>
        <CharString name="acute.case">
          -240 651 149 hstem
          102 230 vstem
          118 651 -97 callgsubr
          endchar
        </CharString>
        <CharString name="acute.loclPLK">
          -240 544 170 hstem
          118 165 vstem
          137 544 rmoveto
          -54 callgsubr
          endchar
        </CharString>
        <CharString name="acute.loclPLK.case">
          -240 647 161 hstem
          141 161 vstem
          160 647 rmoveto
          -60 callgsubr
          endchar
        </CharString>
        <CharString name="acutecomb">
          -495 651 149 hstem
          -153 230 vstem
          -137 651 -97 callgsubr
          endchar
        </CharString>
        <CharString name="adieresis">
          -52 callsubr
          83 113 hstemhm
          34 84 59 114 18 157 -95 115 hintmask 10111101
          291 638 -100 callgsubr
          -78 -436 -83 callsubr
          hintmask 01111110
          -72 callgsubr
          hintmask 10111110
          -88 callsubr
          hintmask 10111101
          -39 callgsubr
          hintmask 01111101
          -99 callgsubr
          endchar
        </CharString>
        <CharString name="ae">
          45 callgsubr
          609 505 -57 callsubr
        </CharString>
        <CharString name="aeacute">
          45 callgsubr
          333 558 -97 callgsubr
          276 -53 -57 callsubr
        </CharString>
        <CharString name="agrave">
          -22 callsubr
          193 661 -79 callsubr
          215 -459 rmoveto
          -94 callsubr
        </CharString>
        <CharString name="amacron">
          -52 callsubr
          79 52 5 callgsubr
          hintmask 10111000
          207 631 -38 callsubr
          201 -429 -83 callsubr
          hintmask 01111100
          -72 callgsubr
          hintmask 10111100
          -88 callsubr
          hintmask 10111000
          -39 callgsubr
          hintmask 01111000
          -99 callgsubr
          endchar
        </CharString>
        <CharString name="ampersand">
          85 -9 48 187.5 46.5 53 45 203 49 hstemhm
          24 86 27 79 201 39 hintmask 11111000
          481 220 rmoveto
          96 -5 rlineto
          58 -271 vlineto
          7 -44 86 -5 -31 -165 rlineto
          -7 -21 -52 -13 -44 hhcurveto
          -91 -50 50 66 139 88 32 116 hvcurveto
          8 45 rlineto
          hintmask 11111110
          -46 4 -60 19 71 vvcurveto
          80 53 29 57 37 27 -7 -9 25 vhcurveto
          4 -97 rlineto
          37 hlineto
          35 130 rlineto
          19 -52 -44 13 -81 hhcurveto
          -72 -105 -40 -111 -56 24 -29 39 -27 hvcurveto
          hintmask 11111000
          -117 -28 -59 -82 -97 vvcurveto
          -108 69 -54 127 100 81 26 21 45 vhcurveto
          35 182 rlineto
          endchar
        </CharString>
        <CharString name="aogonek">
          18 -236 44 184 58 -58 61 399 48 hstemhm
          34 84 167 69 -45 157 hintmask 11011000
          408 202 -83 callsubr
          hintmask 10111010
          -72 callgsubr
          hintmask 11011010
          -58 callgsubr
          11 12 2 3 14 vhcurveto
          hintmask 11011100
          -71 -56 -36 -56 -50 -71 callgsubr
          53 49 76 57 34 hvcurveto
          2 2 1 1 2 hvcurveto
          hintmask 11011010
          30 -79 vlineto
          hintmask 11011000
          -39 callgsubr
          hintmask 10111000
          -99 callgsubr
          endchar
        </CharString>
        <CharString name="approxequal">
          14 177 60 -7 60 34 62 -7 59 hstemhm
          53 401 hintmask 10011000
          162 379 rmoveto
          hintmask 10101000
          54 68 -55 53 hhcurveto
          43 39 33 81 callsubr
          hintmask 10011000
          -59 -56 52 -60 hhcurveto
          -42 -38 -28 -67 -33 hvcurveto
          30 -20 rlineto
          40 26 23 16 30 hhcurveto
          hintmask 01011000
          -149 vmoveto
          hintmask 10011000
          54 68 -53 53 hhcurveto
          43 39 31 64 35 hvcurveto
          -32 19 rlineto
          -39 -25 -19 -15 -37 hhcurveto
          hintmask 01011000
          -59 -56 53 -60 hhcurveto
          -42 -38 -28 -66 -33 hvcurveto
          30 -22 rlineto
          40 26 23 16 30 hhcurveto
          endchar
        </CharString>
        <CharString name="aring">
          -52 callsubr
          36 35 131 35 hstemhm
          34 84 104 54 33 157 -97 54 hintmask 1011111010000000
          307 -23 callgsubr
          95 -369 -83 callsubr
          hintmask 0111111100000000
          -72 callgsubr
          hintmask 1011111100000000
          -88 callsubr
          hintmask 1011111010000000
          -39 callgsubr
          hintmask 0111111010000000
          -99 callgsubr
          endchar
        </CharString>
        <CharString name="aringacute">
          -52 callsubr
          21 35 111 35 hstemhm
          34 84 109 54 28 157 -92 54 hintmask 1010111010000000
          308 713 -97 callgsubr
          hintmask 1011111010000000
          4 -192 -65 callgsubr
          90 -354 rmoveto
          hintmask 0110111100000000
          -91 callsubr
          -72 callgsubr
          hintmask 1010111100000000
          -88 callsubr
          hintmask 1011111010000000
          -39 callgsubr
          hintmask 0110111010000000
          -99 callgsubr
          endchar
        </CharString>
        <CharString name="arrowdown">
          73 29 462 hstem
          250.5 79 vstem
          73 319 rmoveto
          211 -290 rlineto
          13 hlineto
          198 290 -27 28 -145 -173 13 317 rlineto
          -92 hlineto
          13 -317 -157 173 -27 -28 rlineto
          endchar
        </CharString>
        <CharString name="arrowleft">
          64 callsubr
          198 299 rmoveto
          172 145 -27 27 -290 -198 rlineto
          -13 vlineto
          290 -211 27 28 -172 156 317 -13 rlineto
          93 vlineto
          -317 -14 rlineto
          endchar
        </CharString>
        <CharString name="arrowright">
          64 callsubr
          225 49 rmoveto
          290 211 rlineto
          13 vlineto
          -290 198 -28 -27 172 -145 -316 14 rlineto
          -93 vlineto
          316 13 -172 -156 28 -28 rlineto
          endchar
        </CharString>
        <CharString name="arrowup">
          73 29 462 hstem
          237.5 79.5 vstem
          495 201 rmoveto
          -211 290 rlineto
          -14 hlineto
          -197 -290 26 -28 146 173 -15 -317 rlineto
          94 hlineto
          -14 317 157 -173 28 28 rlineto
          endchar
        </CharString>
        <CharString name="asciicircum">
          26 252 358 hstem
          56 410 vstem
          56 252 rmoveto
          69 hlineto
          137 280 135 -280 rlineto
          69 hlineto
          -176 358 rlineto
          -57 hlineto
          -177 -358 rlineto
          endchar
        </CharString>
        <CharString name="asciitilde">
          26 230 60 -7 59 hstemhm
          59 401 hintmask 00000000
          hintmask 01100000
          168 283 rmoveto
          hintmask 10100000
          54 68 -53 53 hhcurveto
          43 39 31 81 callsubr
          hintmask 01100000
          -59 -56 52 -60 hhcurveto
          -42 -38 -28 -66 -33 hvcurveto
          30 -20 rlineto
          40 26 23 15 30 hhcurveto
          endchar
        </CharString>
        <CharString name="asterisk">
          -145 431 307 hstem
          182.5 37.5 vstem
          229 572 rmoveto
          127 19 -9 76 -123 -57 -4 3 42 125 rlineto
          -77 hlineto
          -5 -125 -6 -1 -102 55 -37 -76 118 -19 1 -5 -106 -90 56 -46 80 110 rlineto
          4 hlineto
          38 -110 69 46 -69 90 3 5 rlineto
          endchar
        </CharString>
        <CharString name="at">
          257 -83 49 85 51 -51 58 276 45 12 7 68 43 hstemhm
          18 77 100 77 140 59 181 75 hintmask 1101011111000000
          434 560 rmoveto
          -247 -169 -197 -188 -160 96 -98 167 102 89 25 45 84 hvcurveto
          -12 28 rlineto
          -38 -96 -76 -11 -78 hhcurveto
          -133 -66 74 130 191 145 156 197 132 83 -83 -105 -103 -63 -124 -99 -13 -6 6 18 hvcurveto
          hintmask 1101111111000000
          57 70 258 1 1 vhcurveto
          6 -11 1 -6 -8 -9 -1 0 vhcurveto
          hintmask 1011011111000000
          -16 -25 rlineto
          4 -16 -23 3 -22 hhcurveto
          -150 -86 -134 -120 -68 31 -57 68 47 44 30 58 31 hvcurveto
          hintmask 1101011111000000
          -2 -12 -2 -13 -11 vvcurveto
          -29 10 -23 32 158 115 136 146 111 -89 116 -204 vhcurveto
          hintmask 1011011111000000
          -116 -451 rmoveto
          -31 -15 24 44 84 47 124 89 16 15 -2 -7 18 hvcurveto
          -147 -21 -48 -120 -70 hhcurveto
          endchar
        </CharString>
        <CharString name="atilde">
          -52 callsubr
          84 70 -30 70 5 callgsubr
          hintmask 10110100
          472 677 -63 callgsubr
          hintmask 10101100
          -62 callgsubr
          hintmask 10110100
          -30 callgsubr
          -64 -475 -83 callsubr
          hintmask 01110110
          -72 callgsubr
          hintmask 10110110
          -88 callsubr
          hintmask 10110100
          -39 callgsubr
          hintmask 01110100
          -99 callgsubr
          endchar
        </CharString>
        <CharString name="b">
          25 -8 45 407 61 hstem
          401 86 vstem
          201 403 rmoveto
          -2 3 58 278 22 vvcurveto
          13 -6 8 -13 -28 -63 -14 -21 -57 vhcurveto
          5 -22 75 -10 -125 -633 rlineto
          -14 28 55 -21 78 hhcurveto
          219 62 215 161 106 -45 31 -60 -48 -89 -41 -61 -44 hvcurveto
          135 41 rmoveto
          39 26 -22 -69 -142 -46 -174 -139 -28 -39 11 18 -13 hvcurveto
          99 19 35 178 1 hhcurveto
          43 28 80 58 37 hhcurveto
          endchar
        </CharString>
        <CharString name="backslash">
          -141 -138 834 hstem
          14 328 vstem
          70 696 rmoveto
          -56 hlineto
          270 -834 rlineto
          58 hlineto
          -272 834 rlineto
          endchar
        </CharString>
        <CharString name="bar">
          57 callsubr
          -834 73 834 hlineto
          endchar
        </CharString>
        <CharString name="braceleft">
          -205 -192 903 hstem
          17 331 vstem
          178 674 rmoveto
          -50 -372 -78 -35 -3 -15 65 -35 -95 -374 150 -35 16 26 -84 37 91 357 -95 31 107 32 48 356 98 37 -5 27 -165 -37 rlineto
          endchar
        </CharString>
        <CharString name="braceright">
          -205 -192 903 hstem
          -51 328 vstem
          116 -157 rmoveto
          52 374 77 35 3 15 -64 35 93 372 -147 37 -17 -27 84 -37 -90 -356 95 -32 -107 -31 -49 -357 -97 -37 6 -26 161 35 rlineto
          endchar
        </CharString>
        <CharString name="bracketleft">
          63 callgsubr
          6 357 vstem
          195 -166 rmoveto
          7 34 -115 8 151 780 119 7 -45 callsubr
          -189 hlineto
          -168 -862 rlineto
          189 hlineto
          endchar
        </CharString>
        <CharString name="bracketright">
          63 callgsubr
          -65 356 vstem
          102 696 rmoveto
          -6 -33 115 -7 -151 -780 -118 -8 -7 -34 rlineto
          188 hlineto
          168 862 rlineto
          -189 hlineto
          endchar
        </CharString>
        <CharString name="breve">
          -240 581 54 hstem
          93 36 vstem
          194 581 -103 callsubr
          endchar
        </CharString>
        <CharString name="breve.case">
          -240 669 54 hstem
          110 36 vstem
          211 669 -103 callsubr
          endchar
        </CharString>
        <CharString name="brokenbar">
          57 callsubr
          -323 73 323 hlineto
          -512 vmoveto
          -73 -322 73 322 hlineto
          endchar
        </CharString>
        <CharString name="bullet">
          -17 202 290 hstem
          94 290 vstem
          384 347 rmoveto
          81 -66 64 -79 -81 -64 -64 -81 -79 64 -66 81 79 66 66 79 vhcurveto
          endchar
        </CharString>
        <CharString name="c">
          -104 72 callsubr
          33 88 vstem
          339 453 -79 callgsubr
        </CharString>
        <CharString name="cacute">
          -100 72 callsubr
          31 88 vstem
          211 558 -97 callgsubr
          126 -105 -79 callgsubr
        </CharString>
        <CharString name="cacute.loclPLK">
          -104 72 callsubr
          33 88 vstem
          244 544 rmoveto
          -54 callgsubr
          95 -91 -79 callgsubr
        </CharString>
        <CharString name="caron">
          -240 552 164 hstem
          86 259 vstem
          113 -77 callgsubr
          endchar
        </CharString>
        <CharString name="caron.case">
          -240 651 154 hstem
          93 279 vstem
          120 804 -83 callgsubr
          endchar
        </CharString>
        <CharString name="ccaron">
          -100 72 callsubr
          31 88 vstem
          203 -77 callgsubr
          134 -262 -79 callgsubr
        </CharString>
        <CharString name="ccedilla">
          -100 32 callgsubr
          35 49 419 46 hstem
          31 88 69 65 vstem
          337 453 rmoveto
          10 -85 rlineto
          33 hlineto
          24 114 rlineto
          16 -31 -40 7 -38 hhcurveto
          -180 -84 -176 -181 -99 48 -48 71 -8 hvcurveto
          -31 -59 -73 callsubr
          19 35 42 1 50 10 43 22 rlinecurve
          -11 35 rlineto
          -12 -34 -32 -7 -28 hhcurveto
          -70 -21 36 89 130 58 164 119 12 15 -1 -5 14 hvcurveto
          endchar
        </CharString>
        <CharString name="ccircumflex">
          -104 72 callsubr
          33 88 vstem
          385 -77 callsubr
          -46 -99 -79 callgsubr
        </CharString>
        <CharString name="cdotaccent">
          -104 -9 49 419 46 75 117 hstem
          33 88 121 120 vstem
          362 -32 callsubr
          -23 -184 -79 callgsubr
        </CharString>
        <CharString name="cedilla">
          -240 32 callgsubr
          hstem
          86 65 vstem
          87 8 rmoveto
          -31 hlineto
          -39 -74 -73 callsubr
          28 52 rlineto
          endchar
        </CharString>
        <CharString name="cent">
          -3 30 53 440 50 hstem
          44 81 vstem
          184 32 rmoveto
          -22 -122 rlineto
          45 hlineto
          22 120 51 1 59 19 48 27 rlinecurve
          32 vlineto
          -15 -37 -59 -11 -57 hhcurveto
          -81 -28 50 77 135 49 178 135 29 35 -7 -8 21 hvcurveto
          6 -95 rlineto
          37 hlineto
          32 127 -31 19 -52 12 -43 2 rlinecurve
          22 120 rlineto
          -45 hlineto
          -22 -120 rlineto
          -158 -10 -96 -155 -191 vvcurveto
          -106 46 -66 94 -13 vhcurveto
          endchar
        </CharString>
        <CharString name="circumflex">
          -240 552 157 hstem
          66 248 vstem
          288 -77 callsubr
          endchar
        </CharString>
        <CharString name="circumflex.case">
          -240 650 154 hstem
          70 278 vstem
          322 650 -96 callgsubr
          endchar
        </CharString>
        <CharString name="colon">
          -235 -9 133 238 133 hstemhm
          17 132 -78 133 hintmask 00000000
          hintmask 11010000
          71 46 callgsubr
          hintmask 11100000
          -54 -370 rmoveto
          -37 29 -29 36 36 31 29 37 38 -31 29 -36 -36 -29 -29 -38 vhcurveto
          endchar
        </CharString>
        <CharString name="comma">
          -319 -120 247 hstem
          -28 153 vstem
          111 127 59 callsubr
        </CharString>
        <CharString name="commaaccentInverted">
          -298 556 185 hstem
          63 124 vstem
          78 65 callsubr
          endchar
        </CharString>
        <CharString name="copyright">
          11 209 32 55 28 261 29 49 33 hstem
          10 33 73 60 131 39 118 32 9 callgsubr
          33 hmoveto
          119 92 92 118 119 92 -92 -119 -119 -92 -92 -119 -118 -92 92 119 vhcurveto
          305 -137 rmoveto
          -4 56 rlineto
          -24 hlineto
          -13 -41 rlineto
          -4 -18 -12 -2 -15 hhcurveto
          -75 -11 66 65 78 16 52 72 13 14 -2 -4 16 hvcurveto
          13 -46 rlineto
          24 hlineto
          4 66 rlineto
          9 -31 -29 6 -31 hhcurveto
          -102 -39 -67 -92 -102 35 -57 106 37 25 5 14 29 hvcurveto
          endchar
        </CharString>
        <CharString name="currency">
          64 47 62 280 63 hstem
          99 65 285 63 vstem
          54 79 rmoveto
          37 -50 66 54 rlineto
          -23 28 38 -13 44 hhcurveto
          43 43 12 24 38 hvcurveto
          43 -53 57 50 -43 51 rlineto
          39 42 25 58 54 vvcurveto
          29 -7 27 -11 25 vhcurveto
          63 53 -39 48 -63 -53 rlineto
          24 -28 -39 14 -43 hhcurveto
          -44 -42 -14 -24 -38 hvcurveto
          -42 54 -59 -49 43 -53 rlineto
          -39 -44 -25 -55 -58 vvcurveto
          -28 6 -27 12 -23 vhcurveto
          -63 -52 rlineto
          113 169 rmoveto
          78 15 74 63 77 hhcurveto
          68 48 -49 -66 -88 -85 -77 -85 -68 -47 48 64 9 1 9 2 9 hvcurveto
          endchar
        </CharString>
        <CharString name="d">
          17 -35 callsubr
          -89 -47 rmoveto
          hintmask 01111000
          -43 callsubr
          hintmask 10111000
          30 callsubr
        </CharString>
        <CharString name="dagger">
          -49 0 611 hstem
          82 320 vstem
          199 hmoveto
          62 433 25 callsubr
          -108 -433 rlineto
          94 hlineto
          endchar
        </CharString>
        <CharString name="daggerdbl">
          -49 0 611 hstem
          184 98 vstem
          364 197 rmoveto
          -132 -19 50 128 rlineto
          127 vlineto
          25 callsubr
          -50 -127 rlineto
          -128 vlineto
          -123 19 -17 -88 130 19 -44 -128 rlineto
          86 hlineto
          7 128 124 -19 17 88 rlineto
          endchar
        </CharString>
        <CharString name="dcaron">
          69 -35 callsubr
          157 325 8 callsubr
          -246 -372 rmoveto
          hintmask 01111000
          -43 callsubr
          hintmask 10111000
          30 callsubr
        </CharString>
        <CharString name="dcroat">
          17 -8 57 -57 61 406 46 79 46 44.5 52.5 hstemhm
          34 86 201 76 hintmask 10111100
          498 630 rmoveto
          14 79 rlineto
          11 -7 7 -11 -28 -59 -6 -19 -60 vhcurveto
          5 -23 76 -9 -8 -40 rlineto
          -158 -46 148 hlineto
          -17 -88 rlineto
          5 -21 -21 4 -35 hhcurveto
          -154 -128 -132 -243 hvcurveto
          hintmask 01111110
          -107 45 -31 60 48 96 41 60 44 vhcurveto
          hintmask 10111110
          -25 callsubr
          4 60 9 36 10 56 69 383 rcurveline
          66 46 hlineto
          hintmask 10111100
          -57 hlineto
          -167 -476 rmoveto
          hintmask 01111100
          -43 callsubr
          hintmask 10111100
          30 callsubr
        </CharString>
        <CharString name="degree">
          -42 400 34 246 34 hstem
          69 49 216 50 vstem
          384 557 rmoveto
          86 -71 71 -87 -87 -70 -71 -86 -88 70 -69 87 87 71 69 88 vhcurveto
          -158 123 rmoveto
          69 39 -56 -67 -68 -39 -55 -69 -68 -40 55 68 67 40 56 68 hvcurveto
          endchar
        </CharString>
        <CharString name="dieresis">
          -240 583 113 hstem
          49 18 callsubr
          vstem
          163 638 -100 callgsubr
          endchar
        </CharString>
        <CharString name="dieresis.case">
          -240 671 113 hstem
          66 18 callsubr
          vstem
          180 726 -100 callgsubr
          endchar
        </CharString>
        <CharString name="divide">
          26 117 117 48 54 46 118 hstem
          200 120 vstem
          320 440 rmoveto
          33 -28 27 -32 -32 -28 -27 -33 -32 28 -26 32 32 28 26 32 vhcurveto
          -251 -158 rmoveto
          384 54 -384 -54 hlineto
          251 -108 rmoveto
          34 -28 26 -32 -32 -28 -26 -34 -33 28 -24 32 32 28 24 33 vhcurveto
          endchar
        </CharString>
        <CharString name="dollar">
          -3 2 47 515 48 hstemhm
          58 36 13 77 158 80 -14 35 hintmask 11011000
          180 2 rmoveto
          4 hlineto
          -22 -118 rlineto
          41 hlineto
          21 119 rlineto
          126 16 72 77 116 vvcurveto
          55 -25 33 -49 21 vhcurveto
          -94 41 rlineto
          -45 19 -25 22 40 vvcurveto
          78 57 43 84 vhcurveto
          hintmask 11010100
          22 43 -3 -5 16 hvcurveto
          4 -93 rlineto
          33 hlineto
          32 124 -39 13 -43 10 -44 2 rlinecurve
          19 101 rlineto
          -40 hlineto
          -19 -101 rlineto
          -122 -6 -80 -78 -123 vvcurveto
          -59 29 -28 44 -18 vhcurveto
          hintmask 11111000
          98 -41 rlineto
          44 -19 20 -29 -39 vvcurveto
          -70 -56 -53 -91 -42 -37 8 6 -21 vhcurveto
          -2 83 rlineto
          -35 hlineto
          -33 -114 rlineto
          hintmask 11011000
          -20 45 62 -10 48 hhcurveto
          endchar
        </CharString>
        <CharString name="dotaccent">
          -240 580 117 hstem
          143 120 vstem
          263 -32 callsubr
          endchar
        </CharString>
        <CharString name="dotaccent.case">
          -240 668 117 hstem
          160 120 vstem
          280 -31 callgsubr
          endchar
        </CharString>
        <CharString name="dotbelowcomb">
          -495 -20 callsubr
          hstem
          -255 120 vstem
          -135 -101 -100 callsubr
          endchar
        </CharString>
        <CharString name="dotlessi">
          75 callgsubr
          hstemhm
          59 169 -166 166 hintmask 11000000
          227 483 -11 callgsubr
          hintmask 10100000
          -86 callgsubr
          hintmask 11000000
          -28 callsubr
        </CharString>
        <CharString name="e">
          -42 callgsubr
          16 callgsubr
          310 505 -101 callgsubr
        </CharString>
        <CharString name="eacute">
          -74 -9 51 197 34 184 48 16 callgsubr
          223 558 -97 callgsubr
          87 -53 -101 callgsubr
        </CharString>
        <CharString name="ebreve">
          -42 callgsubr
          76 54 hstem
          33 83 53 36 133 77 vstem
          270 581 -103 callsubr
          40 -76 -101 callgsubr
        </CharString>
        <CharString name="ecaron">
          -42 callgsubr
          16 callgsubr
          202 -77 callgsubr
          108 -210 -101 callgsubr
        </CharString>
        <CharString name="ecircumflex">
          -42 callgsubr
          16 callgsubr
          394 -77 callsubr
          -84 -47 -101 callgsubr
        </CharString>
        <CharString name="edieresis">
          -42 callgsubr
          78 113 hstemhm
          33 83 30 114 78 77 -75 115 hintmask 00000000
          hintmask 11111101
          260 638 -100 callgsubr
          hintmask 11111010
          -145 -133 -101 callgsubr
        </CharString>
        <CharString name="edotaccent">
          -42 callgsubr
          75 117 hstemhm
          33 83 125 120 -23 77 hintmask 00000000
          hintmask 11111100
          361 -32 callsubr
          hintmask 11101010
          -51 -132 -101 callgsubr
        </CharString>
        <CharString name="egrave">
          -42 callgsubr
          16 callgsubr
          165 661 -79 callsubr
          145 -156 -101 callgsubr
        </CharString>
        <CharString name="eight">
          -54 callsubr
        </CharString>
        <CharString name="eight.dnom">
          -94 -9 39 370 39 hstemhm
          33 24 callgsubr
          hintmask 11101000
          35 97 -26 callgsubr
          hintmask 11010100
          -22 callgsubr
          hintmask 11101000
          20 callgsubr
          hintmask 11010100
          -26 callsubr
          hintmask 11101000
          4 79 callgsubr
          -43 callgsubr
        </CharString>
        <CharString name="eight.numr">
          -94 163 39 370 39 hstemhm
          33 24 callgsubr
          hintmask 11101000
          35 269 rmoveto
          -2 -8 0 -7 -8 vvcurveto
          -44 28 -39 93 109 72 64 84 50 -41 22 -43 23 vhcurveto
          hintmask 11010100
          97 38 20 53 36 vvcurveto
          44 -36 34 -80 -112 -52 -64 -70 -40 22 -24 34 -22 vhcurveto
          hintmask 11101000
          -69 -31 -30 -41 -10 62 callgsubr
          18 -20 -28 -45 -28 -29 -53 -26 hvcurveto
          -37 21 -23 25 29 vvcurveto
          3 0 4 1 4 vhcurveto
          hintmask 11101000
          16 -139 rmoveto
          12 -5 rlineto
          37 -16 33 -28 -36 vvcurveto
          -55 -49 -29 -48 -36 -25 13 39 54 36 41 40 22 vhcurveto
          endchar
        </CharString>
        <CharString name="eight.osf">
          -54 callsubr
        </CharString>
        <CharString name="ellipsis">
          73 -9 111 hstem
          43 111 74 111 75 111 vstem
          43 47 rmoveto
          -31 24 -25 30 31 26 25 31 31 -26 24 -31 -30 -24 -24 -31 vhcurveto
          185 hmoveto
          -31 25 -25 30 31 25 25 31 31 -25 24 -31 -30 -25 -24 -31 vhcurveto
          186 hmoveto
          -31 23 -25 31 30 27 25 31 31 -27 24 -30 -31 -23 -24 -31 vhcurveto
          endchar
        </CharString>
        <CharString name="emacron">
          -42 callgsubr
          74 52 16 callgsubr
          193 631 -38 callsubr
          117 -126 -101 callgsubr
        </CharString>
        <CharString name="emdash">
          347 212 49 hstem
          0 838 vstem
          829 212 rmoveto
          9 49 rlineto
          -829 hlineto
          -9 -49 rlineto
          829 hlineto
          endchar
        </CharString>
        <CharString name="endash">
          233 212 49 hstem
          2 725 vstem
          718 212 rmoveto
          9 49 rlineto
          -716 hlineto
          -9 -49 rlineto
          716 hlineto
          endchar
        </CharString>
        <CharString name="eng">
          70 -167 55 552 66 hstem
          411 87 vstem
          437 506 rmoveto
          -59 -99 -53 -68 -62 hvcurveto
          5 21 12 61 14 vvcurveto
          14 -6 10 -13 -31 -63 18 callgsubr
          75 -8 -88 -446 95 15 54 325 rlineto
          63 49 79 46 44 hhcurveto
          19 14 -9 -23 -36 -26 -123 -50 -249 hvcurveto
          -87 -18 -36 -25 -62 hhcurveto
          -28 -27 5 6 -22 hvcurveto
          -8 -37 rlineto
          -12 20 39 -17 50 hhcurveto
          92 58 58 99 21 hvcurveto
          54 262 30 148 44 vvcurveto
          44 -24 18 -37 vhcurveto
          endchar
        </CharString>
        <CharString name="eogonek">
          -89 -236 44 183 51 197 34 184 48 hstemhm
          33 83 29 69 124 77 hintmask 11111010
          310 505 rmoveto
          -70 callgsubr
          hvcurveto
          hintmask 11111110
          15 16 2 3 16 hvcurveto
          -63 -57 -31 -56 -48 -71 callgsubr
          53 49 83 58 33 hvcurveto
          5 3 -6 30 rlineto
          -1 3 hlineto
          -24 callgsubr
          hintmask 11111010
          -74 callsubr
          36 callgsubr
          hvcurveto
          -22 -48 47 callgsubr
        </CharString>
        <CharString name="equal">
          26 200 52 111 54 hstem
          69 384 vstem
          453 363 rmoveto
          54 -384 -54 384 vlineto
          -163 vmoveto
          52 -384 -52 384 vlineto
          endchar
        </CharString>
        <CharString name="estimated">
          191 -12 32 269 30 267 33 hstem
          28 115 401 115 vstem
          148 289 rmoveto
          511 14 hlineto
          176 -140 140 -176 -174 -141 -140 -176 -174 141 -141 174 103 108 53 78 49 vhcurveto
          -51 hlineto
          -65 -50 -76 -34 -82 hhcurveto
          -75 -69 30 58 -50 hvcurveto
          -3 4 -4 7 8 vvcurveto
          159 vlineto
          2 3 1 2 vhcurveto
          396 193 rmoveto
          -159 vlineto
          -2 -1 -2 -2 vhcurveto
          -393 hlineto
          -2 -3 2 2 hvcurveto
          156 vlineto
          8 4 7 4 6 vhcurveto
          57 50 61 29 82 hhcurveto
          89 54 -28 -56 50 hvcurveto
          4 -5 3 -7 -8 vvcurveto
          endchar
        </CharString>
        <CharString name="eth">
          -47 callsubr
          vstem
          252 745 rmoveto
          -26 -24 28 -33 24 -31 20 -31 rlinecurve
          -93 -59 22 -37 93 59 16 -29 12 -29 10 -30 rlinecurve
          2 -14 -15 2 -16 76 callsubr
          148 109 110 189 20 hvcurveto
          2 17 1 15 1 16 rrcurveto
          24 vlineto
          -2 83 -37 91 -59 83 86 55 rcurveline
          -22 35 -89 -56 -27 33 -30 30 -32 29 rlinecurve
          -50 -705 -56 callgsubr
        </CharString>
        <CharString name="exclam">
          -264 -9 111 hstem
          18 111 vstem
          118 187 rmoveto
          114 424 rlineto
          -104 hlineto
          -51 -424 rlineto
          41 hlineto
          -100 -140 rmoveto
          -31 23 -25 31 31 26 25 31 31 -26 24 -31 -31 -23 -24 -31 vhcurveto
          endchar
        </CharString>
        <CharString name="exclamdown">
          -264 389 111 hstem
          92 111 vstem
          203 444 rmoveto
          31 -23 25 -31 -31 -26 -25 -31 -31 26 -24 31 31 23 24 31 vhcurveto
          -100 -140 rmoveto
          -114 -424 rlineto
          104 hlineto
          51 424 rlineto
          -41 hlineto
          endchar
        </CharString>
        <CharString name="f">
          -194 80 callsubr
          586 vstem
          343 727 rmoveto
          -67 callsubr
          22 -4 -10 28 89 callgsubr
          -33 -44 14 -30 hhcurveto
          endchar
        </CharString>
        <CharString name="f_f">
          107 80 callsubr
          887 vstem
          343 727 rmoveto
          -67 callsubr
          22 -4 -10 28 89 callgsubr
          -33 -44 14 -30 hhcurveto
          301 hmoveto
          -67 callsubr
          22 -4 -10 28 89 callgsubr
          -33 -44 14 -30 hhcurveto
          endchar
        </CharString>
        <CharString name="fi">
          72 -167 54 104 58 391 53 89 115 -31 61 hstemhm
          337 166 -69 117 hintmask 11101010
          225 440 rmoveto
          hintmask 11101100
          194 hlineto
          -28 -144 -54 -241 -22 vvcurveto
          -26 13 -16 33 25 39 9 19 56 vhcurveto
          30 -85 vlineto
          29 151 57 257 14 vvcurveto
          44 callsubr
          vhcurveto
          -251 hlineto
          9 53 rlineto
          95 16 30 25 73 hhcurveto
          28 13 -3 -5 16 89 callgsubr
          -24 -32 8 -30 hhcurveto
          -127 -32 -77 -97 -18 hvcurveto
          -13 -65 -101 -26 5 -22 rlineto
          85 hlineto
          -76 -440 rlineto
          -97 -17 -41 -16 -61 hhcurveto
          -27 -26 5 7 -23 hvcurveto
          -7 -36 rlineto
          0 58 -30 57 100 46 60 100 18 vhcurveto
          hintmask 11101010
          80 447 rlineto
          hintmask 11110010
          268 257 -12 callsubr
          endchar
        </CharString>
        <CharString name="five">
          -3 -9 50 300 54 149 67 hstem
          318 92 vstem
          454 611 90 callgsubr
          149 81 -34 -93 -103 -93 -70 -121 -29 -17 0 6 -41 hvcurveto
          -8 -47 rlineto
          -9 37 34 0 30 hhcurveto
          183 117 96 140 77 -40 91 -226 77 callgsubr
        </CharString>
        <CharString name="five.dnom">
          -94 -8 44 188 42 116 59 hstem
          263 77 vstem
          375 441 rmoveto
          -228 hlineto
          -55 -200 13 -17 rlineto
          103 55 -18 -57 -70 -56 -43 -70 -24 -30 4 16 -40 hvcurveto
          -17 -39 rlineto
          -15 32 45 -10 47 hhcurveto
          116 74 70 96 52 -33 53 -158 3 hvcurveto
          33 116 rlineto
          182 hlineto
          11 59 rlineto
          endchar
        </CharString>
        <CharString name="five.numr">
          -94 167 42 190 41 117 45 hstem
          265 77 vstem
          374 602 -2 callgsubr
          endchar
        </CharString>
        <CharString name="five.osf">
          -3 -100 50 303 54 149 67 hstem
          302 92 vstem
          438 523 90 callgsubr
          151 79 -34 -95 -101 -91 -73 -133 -16 -20 1 6 -41 hvcurveto
          -8 -45 rlineto
          -8 33 37 -4 36 hhcurveto
          177 118 100 137 79 -39 91 -227 77 callgsubr
        </CharString>
        <CharString name="fiveeighths">
          457 -9 39 137 42 191 39 118 45 hstemhm
          265 77 242 24 callgsubr
          hintmask 1111110100000000
          620 -51 callsubr
          -246 -9 -2 callgsubr
          212 -505 -26 callgsubr
          hintmask 1111101010000000
          -22 callgsubr
          hintmask 1111110100000000
          20 callgsubr
          hintmask 1111101010000000
          -26 callsubr
          hintmask 1111110100000000
          4 79 callgsubr
          -43 callgsubr
        </CharString>
        <CharString name="fl">
          77 -167 54 104 60 389 53 173 61 hstemhm
          -134 675 -202 173 hintmask 11111000
          525 727 rmoveto
          -18 -31 -20 -8 -13 hvcurveto
          15 -33 -55 13 -30 hhcurveto
          -67 callsubr
          34 -4 -5 28 hvcurveto
          hintmask 11110100
          0 -95 -519 -14 -73 vhcurveto
          -3 -10 -1 -10 -10 vvcurveto
          -28 12 -16 36 25 42 10 20 58 vhcurveto
          30 -89 vlineto
          0 112 613 4 20 vhcurveto
          1 5 1 10 8 vvcurveto
          hintmask 11111000
          9 -1 11 -15 vhcurveto
          endchar
        </CharString>
        <CharString name="florin">
          -3 -169 47 458 38 199 43 hstem
          -28 512 vstem
          427 567 rmoveto
          14 -65 rlineto
          29 hlineto
          14 92 rlineto
          13 -33 -38 9 -38 hhcurveto
          -97 -62 -80 -162 -24 hvcurveto
          -89 hlineto
          -8 -38 rlineto
          90 hlineto
          -60 -344 rlineto
          -79 -14 -23 -35 -48 hhcurveto
          -26 -36 1 0 hvcurveto
          -6 -23 rlineto
          -15 26 33 -10 22 hhcurveto
          60 63 39 93 16 hvcurveto
          65 373 rlineto
          135 hlineto
          6 38 rlineto
          -133 hlineto
          132 17 40 67 61 hhcurveto
          14 20 -3 -3 10 hvcurveto
          endchar
        </CharString>
        <CharString name="four">
          -3 130 60 hstem
          -5 438 vstem
          245 hmoveto
          77 hlineto
          23 130 29 callgsubr
          -130 rlineto
          34 190 75 callsubr
        </CharString>
        <CharString name="four.dnom">
          -94 96 46 hstem
          27 347 vstem
          216 hmoveto
          -33 callsubr
        </CharString>
        <CharString name="four.numr">
          -94 267 46 hstem
          27 347 vstem
          216 171 rmoveto
          70 hlineto
          19 96 rlineto
          60 hlineto
          9 46 rlineto
          -60 hlineto
          55 287 -54 6 -288 -306 5 -33 rlineto
          203 hlineto
          -19 -96 rlineto
          -117 142 rmoveto
          183 195 -38 -195 rlineto
          -145 hlineto
          endchar
        </CharString>
        <CharString name="four.osf">
          -3 41 60 hstem
          -22 438 vstem
          228 -90 rmoveto
          77 hlineto
          23 131 29 callgsubr
          -131 rlineto
          34 191 75 callsubr
        </CharString>
        <CharString name="fraction">
          -259 0 611 hstem
          -19 258 vstem
          239 -51 callsubr
          endchar
        </CharString>
        <CharString name="g">
          10 3 callgsubr
          hstem
          40 87 vstem
          314 80 -99 callsubr
        </CharString>
        <CharString name="g_tilde.loclGUA">
          -9 3 callgsubr
          79 89 callsubr
          32 87 hintmask 11110100
          464 677 -63 callgsubr
          hintmask 11101100
          -62 callgsubr
          hintmask 11110100
          -30 callgsubr
          -158 -597 -99 callsubr
        </CharString>
        <CharString name="gbreve">
          -9 3 callgsubr
          76 54 hstem
          32 87 94 36 vstem
          314 581 -103 callsubr
          -8 -501 -99 callsubr
        </CharString>
        <CharString name="gcaron">
          10 3 callgsubr
          hstem
          40 87 vstem
          235 -77 callgsubr
          79 -635 -99 callsubr
        </CharString>
        <CharString name="gcircumflex">
          10 3 callgsubr
          hstem
          40 87 vstem
          412 -77 callsubr
          -98 -472 -99 callsubr
        </CharString>
        <CharString name="gcommaaccent">
          -9 3 callgsubr
          hstem
          32 87 vstem
          288 65 callsubr
          18 -476 -99 callsubr
        </CharString>
        <CharString name="gdotaccent">
          10 3 callgsubr
          75 117 hstem
          40 87 142 120 vstem
          389 -32 callsubr
          -75 -557 -99 callsubr
        </CharString>
        <CharString name="germandbls">
          122 -9 48 -39 31 409 27 181 52 hstemhm
          296 28 -3 87 31 86 -34 82 hintmask 10110101
          387 -9 rmoveto
          113 73 58 88 hvcurveto
          132 -165 -1 98 vvcurveto
          hintmask 01110110
          83 117 13 109 vvcurveto
          79 -59 50 -93 -117 -78 -75 -137 -25 vhcurveto
          38 callgsubr
          90 473 rlineto
          88 17 34 37 62 hhcurveto
          57 30 -29 -53 hvcurveto
          -105 -118 -21 -100 vvcurveto
          hintmask 10110101
          -119 170 -3 -105 vvcurveto
          -46 -38 -28 -61 vhcurveto
          hintmask 10111001
          -19 -22 3 6 -27 hvcurveto
          75 -28 vlineto
          -37 -111 rlineto
          hintmask 10110101
          -12 31 52 -9 45 hhcurveto
          endchar
        </CharString>
        <CharString name="grave">
          -240 558 149 hstem
          86 230 vstem
          86 661 -79 callsubr
          endchar
        </CharString>
        <CharString name="grave.case">
          -240 651 149 hstem
          104 230 vstem
          104 754 -79 callsubr
          endchar
        </CharString>
        <CharString name="gravecomb">
          -495 651 149 hstem
          -151 230 vstem
          -151 754 -79 callsubr
          endchar
        </CharString>
        <CharString name="greater">
          26 119 378 hstem
          75 382 vstem
          457 28 callsubr
          endchar
        </CharString>
        <CharString name="greaterequal">
          14 30 52 hstem
          63 388 vstem
          451 28 callsubr
          -388 -278 66 callgsubr
        </CharString>
        <CharString name="guillemotleft">
          -83 71 355 hstem
          42 358 vstem
          42 39 callgsubr
          258 -177 rmoveto
          40 22 -52 155 112 155 -31 23 -169 -178 100 -177 rlineto
          endchar
        </CharString>
        <CharString name="guillemotright">
          -83 71 355 hstem
          12 358 vstem
          112 38 callsubr
          258 -177 rmoveto
          -100 177 -39 -22 51 -155 -111 -155 30 -23 169 178 rlineto
          endchar
        </CharString>
        <CharString name="guilsinglleft">
          -233 71 355 hstem
          41 199 vstem
          41 39 callgsubr
          endchar
        </CharString>
        <CharString name="guilsinglright">
          -233 71 355 hstem
          30 200 vstem
          130 38 callsubr
          endchar
        </CharString>
        <CharString name="h">
          56 -9 58 389 67 hstemhm
          322 31 callgsubr
          364 438 rmoveto
          20 13 -8 -24 hvcurveto
          hintmask 11100000
          -12 callgsubr
          hintmask 11010000
          -47 callgsubr
          endchar
        </CharString>
        <CharString name="hbar">
          56 -9 58 389 67 79 46 44.5 52.5 hstemhm
          322 166 -91 87 hintmask 11110100
          403 49 rmoveto
          25 132 56 228 34 vvcurveto
          44 -25 18 -35 -60 -99 -53 -68 -62 vhcurveto
          10 53 16 80 13 67 rrcurveto
          129 hlineto
          9 46 rlineto
          -130 hlineto
          14 79 rlineto
          11 -7 7 -11 -28 -60 -6 -19 -61 vhcurveto
          5 -23 76 -9 -8 -40 rlineto
          -83 hlineto
          -9 -46 rlineto
          83 hlineto
          -116 -593 94 16 54 324 rlineto
          62 49 79 45 43 hhcurveto
          20 13 -8 -24 hvcurveto
          hintmask 11111000
          -12 callgsubr
          hintmask 11110100
          -85 hlineto
          endchar
        </CharString>
        <CharString name="hcircumflex">
          56 -9 58 389 67 hstemhm
          322 31 callgsubr
          339 734 -96 callgsubr
          25 -296 rmoveto
          20 13 -8 -24 hvcurveto
          hintmask 11100000
          -12 callgsubr
          hintmask 11010000
          -47 callgsubr
          endchar
        </CharString>
        <CharString name="hookabovecomb">
          -495 655 26 hstem
          -124 28 64 55 vstem
          -53 681 rmoveto
          -18 -25 -2 -4 -26 hvcurveto
          9 callsubr
          -102 callsubr
          vhcurveto
          endchar
        </CharString>
        <CharString name="hungarumlaut">
          -240 544 170 hstem
          38 326 vstem
          57 544 rmoveto
          -54 callgsubr
          161 hmoveto
          -54 callgsubr
          endchar
        </CharString>
        <CharString name="hungarumlaut.case">
          -240 647 161 hstem
          59 322 vstem
          78 647 rmoveto
          -60 callgsubr
          161 hmoveto
          -60 callgsubr
          endchar
        </CharString>
        <CharString name="hyphen">
          -214 212 49 hstem
          5 273 vstem
          269 212 rmoveto
          9 49 rlineto
          -264 hlineto
          -9 -49 rlineto
          264 hlineto
          endchar
        </CharString>
        <CharString name="i">
          -206 -9 58 533 115 hstemhm
          57 166 -73 117 hintmask 11010000
          209 697 -12 callsubr
          17 -214 -11 callgsubr
          hintmask 11100000
          -9 callsubr
          hintmask 11010000
          56 callgsubr
          endchar
        </CharString>
        <CharString name="i.loclTRK">
          75 callgsubr
          531 117 hstemhm
          62 166 -66 120 hintmask 11010000
          282 -32 callsubr
          -55 -154 -11 callgsubr
          hintmask 11100000
          -86 callgsubr
          hintmask 11010000
          -28 callsubr
        </CharString>
        <CharString name="iacute">
          75 callgsubr
          hstemhm
          59 250 -247 166 hintmask 11000000
          95 558 -97 callgsubr
          132 -75 -11 callgsubr
          hintmask 10100000
          -86 callgsubr
          hintmask 11000000
          -28 callsubr
        </CharString>
        <CharString name="iacute_j.loclNLD">
          74 68 callsubr
          hstemhm
          59 567 -564 166 hintmask 11110000
          127 558 -97 callgsubr
          285 hmoveto
          214 103 rlineto
          18 vlineto
          -76 28 -154 -130 16 -19 rlineto
          -185 -75 -11 callgsubr
          hintmask 11101000
          -86 callgsubr
          hintmask 11110000
          29 151 55 269 14 vvcurveto
          299 -1 -86 callsubr
        </CharString>
        <CharString name="ibreve">
          75 callgsubr
          532 54 hstemhm
          62 166 -116 36 hintmask 11010000
          213 581 -103 callsubr
          14 -98 -11 callgsubr
          hintmask 11100000
          -86 callgsubr
          hintmask 11010000
          -28 callsubr
        </CharString>
        <CharString name="icircumflex">
          75 callgsubr
          hstemhm
          51 227 -216 166 hintmask 11000000
          253 552 rmoveto
          25 18 -58 139 rlineto
          -60 hlineto
          -109 -138 20 -19 109 86 73 -86 rlineto
          -26 -69 -11 callgsubr
          hintmask 10100000
          -86 callgsubr
          hintmask 11000000
          -28 callsubr
        </CharString>
        <CharString name="idieresis">
          75 callgsubr
          534 113 hstemhm
          39 114 -91 166 -23 115 hintmask 11101000
          153 45 callsubr
          167 hmoveto
          32 -28 26 -30 -30 -27 -26 -32 -30 27 -25 30 30 28 25 30 vhcurveto
          -93 -155 -11 callgsubr
          hintmask 11010000
          -86 callgsubr
          hintmask 11101000
          -28 callsubr
        </CharString>
        <CharString name="igrave">
          75 callgsubr
          hstemhm
          33 230 -201 166 hintmask 11000000
          33 661 -79 callsubr
          194 -178 -11 callgsubr
          hintmask 10100000
          -86 callgsubr
          hintmask 11000000
          -28 callsubr
        </CharString>
        <CharString name="ij">
          45 68 callsubr
          77 115 hstemhm
          57 166 -73 117 153 118 hintmask 11110110
          209 697 -12 callsubr
          270 hmoveto
          -21 callgsubr
          -253 -214 -11 callgsubr
          hintmask 11111010
          -9 callsubr
          hintmask 11110110
          56 callgsubr
          271 -1 -86 callsubr
        </CharString>
        <CharString name="imacron">
          75 callgsubr
          530 52 hstemhm
          59 225 -222 166 hintmask 01100000
          67 631 -38 callsubr
          160 -148 -11 callgsubr
          hintmask 11010000
          -86 callgsubr
          hintmask 01100000
          -28 callsubr
        </CharString>
        <CharString name="infinity">
          213 169 54 170 54 hstem
          47 59 496 59 vstem
          353 351 rmoveto
          40 -29 -53 56 -79 hhcurveto
          -119 -26 -84 -55 -56 26 -83 119 79 53 57 40 29 hvcurveto
          -40 30 53 -57 78 hhcurveto
          120 27 83 56 55 -27 84 -120 -78 -53 -56 -40 -30 hvcurveto
          -247 -43 rmoveto
          33 11 52 74 63 47 -56 -29 23 vhcurveto
          -28 -23 -47 -57 -63 hhcurveto
          -74 -11 51 34 hvcurveto
          496 hmoveto
          -34 -11 -51 -74 -65 -46 57 28 -23 vhcurveto
          29 24 45 56 65 hhcurveto
          74 11 -52 -33 hvcurveto
          endchar
        </CharString>
        <CharString name="integral">
          -107 -134 35 764 36 hstem
          169 77 vstem
          246 -1 rmoveto
          607 vlineto
          44 22 15 22 12 11 -4 -7 8 vhcurveto
          12 -63 rlineto
          31 hlineto
          13 83 rlineto
          18 -20 -40 9 -25 hhcurveto
          -79 -44 -44 -89 hvcurveto
          -607 vlineto
          -45 -23 -15 -22 -12 -11 4 7 -8 vhcurveto
          -12 62 rlineto
          -31 hlineto
          -12 -83 rlineto
          -17 21 39 -8 24 hhcurveto
          79 45 44 89 hvcurveto
          endchar
        </CharString>
        <CharString name="iogonek">
          -203 -236 44 183 58 533 115 hstemhm
          51 69 -54 166 -73 117 hintmask 11110100
          218 697 -12 callsubr
          17 -214 -11 callgsubr
          hintmask 11101000
          12 callsubr
          -53 -239 -22 vvcurveto
          -26 13 -16 33 12 16 2 5 19 vhcurveto
          hintmask 11110100
          -73 -56 -35 -56 -51 -71 callgsubr
          hvcurveto
          hintmask 11101000
          54 52 78 60 32 vhcurveto
          30 -85 vlineto
          hintmask 11110100
          56 callgsubr
          endchar
        </CharString>
        <CharString name="itilde">
          75 callgsubr
          535 89 callsubr
          37 268 -243 166 hintmask 11010000
          305 677 -63 callgsubr
          hintmask 10110000
          -35 -51 40 -34 hhcurveto
          -33 -20 -42 -52 -21 hvcurveto
          30 -12 rlineto
          0 23 36 22 vhcurveto
          hintmask 11010000
          33 53 -40 34 hhcurveto
          32 20 42 51 21 hvcurveto
          -78 -194 -11 callgsubr
          hintmask 11001000
          -86 callgsubr
          hintmask 11010000
          -28 callsubr
        </CharString>
        <CharString name="j">
          -218 -167 55 694 115 hstem
          157 118 vstem
          216 10 callgsubr
          18 -215 -86 callsubr
        </CharString>
        <CharString name="jcircumflex">
          -218 -167 55 hstem
          -131 455 vstem
          298 -77 callsubr
          -64 -70 -86 callsubr
        </CharString>
        <CharString name="k">
          4 19 30 391 65 hstem
          407 81 vstem
          140 7 rmoveto
          54 326 -46 callgsubr
          27 144 32 154 33 callsubr
          -23 76 -10 -130 -668 95 16 rlineto
          endchar
        </CharString>
        <CharString name="kcommaaccent">
          -4 19 30 391 65 hstem
          409 81 vstem
          142 7 rmoveto
          54 326 -46 callgsubr
          27 144 32 154 33 callsubr
          -23 76 -10 -130 -668 95 16 rlineto
          107 -38 -62 callsubr
        </CharString>
        <CharString name="kgreenlandic">
          16 19 30 391 65 hstem
          420 81 vstem
          152 6 rmoveto
          55 327 -46 callgsubr
          8 44 9 32 33 callsubr
          -25 75 -8 -88 -446 95 15 rlineto
          endchar
        </CharString>
        <CharString name="l">
          -205 -9 60 hstemhm
          57 173 -173 205 hintmask 10100000
          62 callsubr
          hintmask 11000000
          -64 callsubr
          hintmask 10100000
          61 callsubr
          endchar
        </CharString>
        <CharString name="lacute">
          -203 -9 60 hstemhm
          59 173 -173 264 hintmask 10100000
          109 728 -97 callgsubr
          136 -1 -7 callgsubr
          hintmask 11000000
          -64 callsubr
          hintmask 10100000
          61 callsubr
          endchar
        </CharString>
        <CharString name="lcaron">
          -194 -9 60 hstemhm
          59 173 -173 315 hintmask 10100000
          63 callsubr
          hintmask 11000000
          -64 callsubr
          hintmask 10100000
          61 callsubr
          69 -201 8 callsubr
          endchar
        </CharString>
        <CharString name="lcommaaccent">
          -203 -9 60 hstemhm
          35 229 -205 173 hintmask 11000000
          63 callsubr
          hintmask 10100000
          -64 callsubr
          hintmask 11000000
          61 callsubr
          -100 -758 -62 callsubr
        </CharString>
        <CharString name="ldot">
          -205 -9 60 327 115 hstem
          57 173 32 114 vstem
          62 callsubr
          -64 callsubr
          61 callsubr
          133 -291 11 callgsubr
        </CharString>
        <CharString name="less">
          26 119 378 hstem
          64 383 vstem
          417 27 callsubr
          endchar
        </CharString>
        <CharString name="lessequal">
          14 30 52 hstem
          58 389 vstem
          411 27 callsubr
          -348 -89 66 callgsubr
        </CharString>
        <CharString name="logicalnot">
          26 282 54 hstem
          403 50 vstem
          453 137 rmoveto
          199 -385 -54 335 -145 50 vlineto
          endchar
        </CharString>
        <CharString name="longs">
          -194 0 31 409 27 199 61 hstem
          -21 471 vstem
          343 727 rmoveto
          -116 -33 -48 -191 -41 hvcurveto
          38 callgsubr
          96 496 rlineto
          95 18 26 25 71 hhcurveto
          28 22 -4 -10 28 89 callgsubr
          -33 -44 14 -30 hhcurveto
          endchar
        </CharString>
        <CharString name="lozenge">
          14 -1 611 hstem
          57 395 vstem
          226 610 rmoveto
          -169 -306 169 -305 rlineto
          57 hlineto
          169 305 -169 306 rlineto
          -57 hlineto
          -102 -306 rmoveto
          130 228 128 -228 -128 -227 -130 227 rlineto
          endchar
        </CharString>
        <CharString name="lslash">
          -203 -9 60 hstemhm
          10 303 -254 173 hintmask 11000000
          63 callsubr
          hintmask 10100000
          0 -24 -134 -26 -141 vhcurveto
          -112 -57 20 -39 81 42 -22 -119 -20 -113 -6 -31 rlinecurve
          -3 -10 -1 -10 -10 vvcurveto
          -28 12 -16 36 25 42 10 20 58 vhcurveto
          30 -89 vlineto
          60 324 110 56 -22 38 -77 -40 49 260 rlineto
          1 5 0 5 6 vvcurveto
          hintmask 11000000
          61 callsubr
          endchar
        </CharString>
        <CharString name="m">
          292 -9 58 390 66 hstemhm
          389 87 84 166 -91 86 hintmask 11101000
          304 -9 rmoveto
          94 16 59 330 rlineto
          49 41 73 53 42 hhcurveto
          20 2 -9 -24 hvcurveto
          hintmask 11110000
          -12 callgsubr
          hintmask 11101000
          -85 hlineto
          28 130 52 230 34 vvcurveto
          44 -13 18 -35 -58 -94 -56 -58 -53 vhcurveto
          5 22 3 22 8 vvcurveto
          44 -14 18 -35 -60 -100 -60 -61 -51 vhcurveto
          4 21 11 61 14 vvcurveto
          14 -6 10 -10 -29 -63 -16 -20 -55 vhcurveto
          4 -24 76 -8 -89 -445 95 16 53 324 rlineto
          52 40 77 56 43 hhcurveto
          20 2 -9 -24 -20 -49 -216 -36 -179 hvcurveto
          endchar
        </CharString>
        <CharString name="macron">
          -240 579 52 hstem
          84 225 vstem
          92 631 -38 callsubr
          endchar
        </CharString>
        <CharString name="macron.case">
          -240 689 54 hstem
          96 245 vstem
          104 743 -38 callgsubr
          endchar
        </CharString>
        <CharString name="minus">
          14 282 54 hstem
          63 384 vstem
          63 282 rmoveto
          384 54 -384 -54 hlineto
          endchar
        </CharString>
        <CharString name="multiply">
          26 141 338 hstem
          92 336 vstem
          92 180 rmoveto
          37 -39 131 132 132 -131 36 38 -131 130 131 131 -38 37 -130 -130 -130 131 -38 -38 131 -131 -131 -130 rlineto
          endchar
        </CharString>
        <CharString name="n">
          73 callsubr
          hstemhm
          336 31 callgsubr
          217 385 -88 callgsubr
          endchar
        </CharString>
        <CharString name="nacute">
          73 callsubr
          hstemhm
          338 31 callgsubr
          281 558 -97 callgsubr
          -62 -173 -88 callgsubr
          endchar
        </CharString>
        <CharString name="nacute.loclPLK">
          73 callsubr
          hstemhm
          336 31 callgsubr
          301 544 rmoveto
          -54 callgsubr
          -84 -159 -88 callgsubr
          endchar
        </CharString>
        <CharString name="napostrophe">
          105 88 callsubr
          hstemhm
          336 31 callgsubr
          197 526 8 callsubr
          20 -141 -88 callgsubr
          endchar
        </CharString>
        <CharString name="ncaron">
          73 callsubr
          hstemhm
          338 31 callgsubr
          250 -77 callgsubr
          -31 -330 -88 callgsubr
          endchar
        </CharString>
        <CharString name="ncommaaccent">
          73 callsubr
          hstemhm
          338 31 callgsubr
          219 385 -88 callgsubr
          60 -416 -62 callsubr
        </CharString>
        <CharString name="nine">
          -3 239 55 282 51 hstem
          55 90 230 86 vstem
          48 22 rmoveto
          6 -37 rlineto
          199 5 208 170 290 vvcurveto
          101 -63 76 -105 -182 -56 -148 -76 -98 36 -66 110 62 54 27 32 37 vhcurveto
          -41 -143 -103 -113 -162 -20 rrcurveto
          184 272 rmoveto
          -60 -27 47 62 96 42 77 89 68 31 -39 -90 -33 -3 -33 -6 -32 hvcurveto
          -19 -26 -57 -36 -51 hhcurveto
          endchar
        </CharString>
        <CharString name="nine.dnom">
          -94 -9 45 127 46 60 callgsubr
          43 51 rmoveto
          -18 -39 rlineto
          -13 30 34 -8 44 hhcurveto
          86 111 45 200 38 50 callsubr
          -44 70 31 38 9 19 44 vhcurveto
          -110 -26 -60 -45 -72 hhcurveto
          -24 -29 5 43 callgsubr
          -29 -37 -14 -30 hhcurveto
          -34 -25 18 44 69 43 58 61 43 17 -26 -49 -22 -3 -27 -6 -31 hvcurveto
          endchar
        </CharString>
        <CharString name="nine.numr">
          -94 163 45 128 44 60 callgsubr
          42 222 rmoveto
          -17 -39 rlineto
          -13 30 34 -7 44 hhcurveto
          86 110 45 199 39 50 callsubr
          -42 70 31 38 7 20 44 vhcurveto
          -111 -26 -61 -44 -72 hhcurveto
          -24 -29 4 43 callgsubr
          -28 -37 -14 -30 hhcurveto
          -34 -25 19 44 70 44 56 60 43 17 -25 -48 -22 -4 -28 -6 -32 hvcurveto
          endchar
        </CharString>
        <CharString name="nine.osf">
          -3 146 55 282 51 hstem
          39 90 230 86 vstem
          32 -63 rmoveto
          6 -37 rlineto
          200 1 207 190 244 vvcurveto
          134 -63 65 -115 -172 -56 -143 -93 -86 47 -66 105 55 42 18 41 50 vhcurveto
          -41 -139 -103 -110 -162 -19 rrcurveto
          183 264 rmoveto
          -59 -27 45 71 88 42 78 91 66 31 -40 -92 -29 -3 -34 -6 -32 hvcurveto
          -19 -26 -56 -36 -53 hhcurveto
          endchar
        </CharString>
        <CharString name="notequal">
          14 200 52 111 54 hstem
          63 384 vstem
          447 417 rmoveto
          -100 hlineto
          50 84 -46 27 -64 -111 rlineto
          -224 -54 194 hlineto
          -66 -111 rlineto
          -128 -52 98 hlineto
          -48 -84 45 -26 64 110 rlineto
          225 52 -195 hlineto
          65 111 rlineto
          130 54 hlineto
          endchar
        </CharString>
        <CharString name="ntilde">
          73 callsubr
          78 89 callsubr
          338 166 -91 87 hintmask 11100100
          499 677 -63 callgsubr
          hintmask 11010100
          -62 callgsubr
          hintmask 11100100
          -30 callgsubr
          -280 -292 rmoveto
          5 21 12 61 14 vvcurveto
          14 -6 10 -13 -31 -63 18 callgsubr
          75 -8 -88 -446 95 15 54 325 rlineto
          85 callsubr
          hintmask 11101000
          -39 -75 -293 -33 vvcurveto
          -37 26 -15 37 28 37 11 17 38 vhcurveto
          29 vlineto
          hintmask 11100100
          -86 hlineto
          30 132 52 230 34 vvcurveto
          44 -24 18 -37 -59 -99 -53 -68 -62 vhcurveto
          endchar
        </CharString>
        <CharString name="numbersign">
          73 169 53 111 53 hstem
          6 556 vstem
          398 222 rmoveto
          32 111 rlineto
          117 hlineto
          15 53 rlineto
          -117 hlineto
          49 177 rlineto
          -56 hlineto
          -50 -177 rlineto
          -139 hlineto
          49 177 rlineto
          -54 hlineto
          -50 -177 rlineto
          -128 hlineto
          -14 -53 rlineto
          127 hlineto
          -31 -111 rlineto
          -128 hlineto
          -14 -53 rlineto
          129 hlineto
          -49 -178 rlineto
          54 hlineto
          48 178 rlineto
          141 hlineto
          -49 -178 rlineto
          55 hlineto
          49 178 rlineto
          118 hlineto
          14 53 rlineto
          -118 hlineto
          -195 hmoveto
          32 111 rlineto
          140 hlineto
          -31 -111 rlineto
          -141 hlineto
          endchar
        </CharString>
        <CharString name="o">
          -47 callsubr
          vstem
          313 505 -101 callsubr
        </CharString>
        <CharString name="oacute">
          -47 callsubr
          vstem
          230 558 -97 callgsubr
          83 -53 -101 callsubr
        </CharString>
        <CharString name="oacute.loclPLK">
          -47 callsubr
          vstem
          267 544 rmoveto
          -54 callgsubr
          46 -39 -101 callsubr
        </CharString>
        <CharString name="obreve">
          2 -9 49 415 50 76 54 hstem
          33 86 96 36 127 86 vstem
          316 581 -49 callgsubr
          -76 -101 callsubr
        </CharString>
        <CharString name="ocircumflex">
          -47 callsubr
          vstem
          421 -77 callsubr
          -108 -47 -101 callsubr
        </CharString>
        <CharString name="odieresis">
          2 -9 49 415 50 78 113 hstemhm
          33 86 65 114 80 86 -86 115 hintmask 11111100
          298 45 callsubr
          hintmask 11111010
          195 hmoveto
          32 -28 26 -30 -30 -27 -26 -32 -30 27 -25 30 30 28 25 30 vhcurveto
          hintmask 11111100
          -180 -133 -101 callsubr
        </CharString>
        <CharString name="oe">
          240 -9 49 199 34 182 50 hstem
          33 86 259 66 222 77 vstem
          638 505 rmoveto
          -81 -61 -31 -48 -44 hvcurveto
          52 -19 -46 27 -74 76 callsubr
          75 66 29 53 49 hvcurveto
          -57 21 48 -25 78 hhcurveto
          -4 callgsubr
          hvcurveto
          -7 33 rlineto
          -24 callgsubr
          -97 -29 26 91 18 1 21 4 24 hvcurveto
          3 17 rlineto
          188 103 65 103 36 callgsubr
          hvcurveto
          -22 -48 -80 callgsubr
          -414 -417 -56 callgsubr
        </CharString>
        <CharString name="ogonek">
          -240 -236 44 hstem
          -46 69 vstem
          103 hmoveto
          -34 hlineto
          -83 -60 -32 -61 -44 -71 callgsubr
          54 43 58 37 33 hvcurveto
          endchar
        </CharString>
        <CharString name="ograve">
          -47 callsubr
          vstem
          190 661 -79 callsubr
          123 -156 -101 callsubr
        </CharString>
        <CharString name="ohorn">
          -47 callsubr
          49 82 vstem
          595 488 -85 callgsubr
        </CharString>
        <CharString name="ohungarumlaut">
          -47 callsubr
          vstem
          181 544 rmoveto
          -54 callgsubr
          161 hmoveto
          -54 callgsubr
          -29 -39 -101 callsubr
        </CharString>
        <CharString name="omacron">
          2 -9 49 415 50 74 52 87 callgsubr
          207 631 -38 callsubr
          106 -126 -101 callsubr
        </CharString>
        <CharString name="one">
          -3 0 33 508 76 callgsubr
          101 554 -250 -36 -7 -37 rlineto
          158 hlineto
          -87 -481 -168 -27 -44 callgsubr
          392 hlineto
          -45 callsubr
          endchar
        </CharString>
        <CharString name="one.dnom">
          -131 373 29 hstem
          97 195 vstem
          97 373 41 callsubr
        </CharString>
        <CharString name="one.numr">
          -131 546 28 hstem
          107 195 vstem
          107 546 -17 callsubr
          endchar
        </CharString>
        <CharString name="one.osf">
          -3 0 33 428 76 callgsubr
          87 474 -250 -36 -7 -37 rlineto
          158 hlineto
          -73 -401 -168 -27 -44 callgsubr
          392 hlineto
          -45 callsubr
          endchar
        </CharString>
        <CharString name="oneeighth">
          419 -9 39 370 39 107 28 hstemhm
          546 24 callgsubr
          hintmask 11110100
          560 -51 callsubr
          -453 -65 -17 callsubr
          441 -449 -50 callsubr
        </CharString>
        <CharString name="onehalf">
          387 0 49 345 45 107 28 hstem
          737 77 vstem
          519 -51 callsubr
          -446 -65 -17 callsubr
          601 -152 -6 callsubr
        </CharString>
        <CharString name="onequarter">
          387 96 46 404 28 hstem
          51 747 vstem
          520 -51 callsubr
          -469 -65 -17 callsubr
          589 -546 rmoveto
          -33 callsubr
        </CharString>
        <CharString name="ordfeminine">
          -43 269 51 290 41 hstem
          57 74 131 69 vstem
          346 -30 callsubr
        </CharString>
        <CharString name="ordmasculine">
          -53 268 44 297 44 hstem
          52 72 182 71 vstem
          263 0 callgsubr
        </CharString>
        <CharString name="oslash">
          67 callsubr
          106 -92 -37 callgsubr
        </CharString>
        <CharString name="oslashacute">
          67 callsubr
          230 558 -97 callgsubr
          -124 -650 -37 callgsubr
        </CharString>
        <CharString name="otilde">
          2 -9 49 415 50 79 89 callsubr
          33 86 259 86 hintmask 11101100
          464 677 -63 callgsubr
          hintmask 11011100
          -62 callgsubr
          hintmask 11101100
          -30 callgsubr
          -151 -172 -101 callsubr
        </CharString>
        <CharString name="p">
          43 0 45 401 60 hstem
          412 85 vstem
          222 482 rmoveto
          14 -5 10 -13 -29 -62 -15 -20 -55 vhcurveto
          5 -24 74 -7 -109 -617 20 callsubr
          0 13 62 26 vvcurveto
          8 -437 rmoveto
          -28 -32 13 13 -16 hvcurveto
          47 273 rlineto
          39 30 80 63 69 callgsubr
        </CharString>
        <CharString name="paragraph">
          30 0 34 543 34 hstem
          43 497 vstem
          246 208 rmoveto
          77 407 rlineto
          2 -8 -10 1 -11 hhcurveto
          -149 -102 -122 -133 -91 57 -68 113 11 13 1 3 9 hvcurveto
          183 -175 rmoveto
          -92 20 97 503 99 21 7 34 rlineto
          -178 hlineto
          -107 -557 -118 -20 -7 -34 rlineto
          292 hlineto
          7 33 rlineto
          endchar
        </CharString>
        <CharString name="parenleft">
          -205 -181 892 hstem
          31 78 vstem
          144 264 rmoveto
          40 206 30 154 147 60 -6 27 rcurveline
          -200 -54 -32 -105 -56 -288 rrcurveto
          -21 -108 -15 -82 -64 vvcurveto
          -104 39 -53 112 -34 vhcurveto
          16 27 rlineto
          -67 31 -22 59 80 vvcurveto
          69 16 84 19 95 vhcurveto
          endchar
        </CharString>
        <CharString name="parenright">
          -205 -181 892 hstem
          180 77 vstem
          145 264 rmoveto
          -40 -205 -30 -155 -146 -58 6 -27 rcurveline
          197 54 34 105 56 286 rrcurveto
          21 108 14 82 63 vvcurveto
          106 -39 54 -111 34 vhcurveto
          -16 -27 rlineto
          67 -32 22 -60 -80 vvcurveto
          -65 -17 -88 -18 -95 vhcurveto
          endchar
        </CharString>
        <CharString name="partialdiff">
          19 -10 51 367 45 223 53 hstem
          41 89 262 88 vstem
          57 667 rmoveto
          13 -24 rlineto
          24 48 30 9 45 hhcurveto
          148 32 -109 -139 11 hvcurveto
          2 -58 23 -57 -146 -82 -89 -135 -133 58 -106 138 109 134 66 281 276 -111 116 -140 -66 -60 -17 -45 -46 vhcurveto
          202 -626 rmoveto
          -101 -28 67 116 128 56 56 84 53 36 -15 -13 29 hvcurveto
          3 -42 1 -25 -35 vvcurveto
          -150 -45 -87 -88 vhcurveto
          endchar
        </CharString>
        <CharString name="percent">
          387 80 callgsubr
          66 47 245 47 80 49 244 47 vstem
          192 -35 callgsubr
          15 69 rmoveto
          14 callsubr
          endchar
        </CharString>
        <CharString name="period">
          -297 -9 122 hstem
          14 125 vstem
          139 52 rmoveto
          33 -29 28 -34 -33 -29 -28 -33 -34 29 -27 33 34 29 27 34 vhcurveto
          endchar
        </CharString>
        <CharString name="periodcentered">
          -253 194 115 hstem
          64 114 vstem
          178 252 11 callgsubr
        </CharString>
        <CharString name="perthousand">
          761 80 callgsubr
          75 47 245 47 80 49 244 47 34 49 244 47 vstem
          201 -35 callgsubr
          374 hmoveto
          112 101 130 179 105 -54 36 -72 -114 -100 -130 -177 -104 54 -39 73 hvcurveto
          -359 69 rmoveto
          14 callsubr
          374 hmoveto
          14 callsubr
          endchar
        </CharString>
        <CharString name="pi">
          108 -3 53 366 75 hstem
          150 71 157 79 72 34 vstem
          73 40 rmoveto
          -28 vlineto
          -13 38 30 -3 29 hhcurveto
          33 18 21 54 hvcurveto
          345 157 -255 vlineto
          -145 28 -19 90 17 32 5 17 33 vhcurveto
          -5 31 rlineto
          -46 hlineto
          -53 -17 38 55 hvcurveto
          273 35 vlineto
          62 9 43 71 hvcurveto
          16 -34 vlineto
          -40 -18 -15 -32 vhcurveto
          -354 hlineto
          -62 -44 -54 -63 hvcurveto
          30 -7 rlineto
          37 25 10 12 58 hhcurveto
          8 -358 hlineto
          -77 -18 rlineto
          endchar
        </CharString>
        <CharString name="plus">
          14 281 53 hstem
          228 52 vstem
          447 28 callgsubr
          endchar
        </CharString>
        <CharString name="plusminus">
          26 30 52 199 53 hstem
          234 52 vstem
          453 28 callgsubr
          -384 -304 66 callgsubr
        </CharString>
        <CharString name="product">
          164 0 33 525 53 hstem
          129 83 235 83 vstem
          39 611 rmoveto
          -33 vlineto
          90 -20 rlineto
          -505 vlineto
          -90 -20 rlineto
          -33 263 33 vlineto
          -90 20 rlineto
          505 235 -505 vlineto
          -89 -20 rlineto
          -33 262 33 vlineto
          -90 20 rlineto
          505 vlineto
          90 20 rlineto
          33 -581 vlineto
          endchar
        </CharString>
        <CharString name="q">
          5 -8 61 407 45 hstem
          33 88 vstem
          484 514 rmoveto
          -32 8 -23 -33 rlineto
          10 -30 -32 6 -48 hhcurveto
          -173 -113 -131 -248 -108 46 -26 61 53 81 36 61 50 hvcurveto
          -52 -267 91 16 11 100 rlineto
          0 109 574 1 2 vhcurveto
          -150 -364 rmoveto
          -44 -28 -71 -53 -50 hhcurveto
          -39 -25 17 70 126 45 194 143 33 37 -15 -15 10 hvcurveto
          -99 -18 -36 -181 -1 hhcurveto
          endchar
        </CharString>
        <CharString name="question">
          -125 -9 111 57 25 394 50 hstemhm
          40 111 -80 64 166 88 hintmask 11101100
          240 628 rmoveto
          -66 -65 -26 -17 -26 hvcurveto
          11 -31 rlineto
          0 63 24 55 52 37 -24 -60 -38 -37 -60 -84 -67 vhcurveto
          -61 -49 -48 -42 -31 vvcurveto
          -32 20 -16 38 14 15 3 0 vhcurveto
          7 22 rlineto
          0 -30 0 21 vvcurveto
          23 35 29 49 35 vhcurveto
          123 90 47 54 66 vvcurveto
          74 -62 52 -87 vhcurveto
          hintmask 11110100
          -145 -526 rmoveto
          -31 -24 -25 -31 -31 24 -24 31 31 25 24 31 31 -25 25 -31 hvcurveto
          endchar
        </CharString>
        <CharString name="questiondown">
          -125 -137 50 394 25 57 111 hstemhm
          -16 88 147 111 -92 64 hintmask 00000000
          hintmask 11111000
          275 389 rmoveto
          31 24 25 31 31 -24 24 -31 -31 -25 -24 -31 -31 25 -25 31 hvcurveto
          -142 -526 rmoveto
          54 77 26 17 26 hvcurveto
          -11 31 rlineto
          0 -63 -24 -55 -52 -37 24 60 38 37 60 84 67 vhcurveto
          hintmask 11110100
          61 49 48 42 31 vvcurveto
          32 -20 16 -38 -14 -15 -3 0 vhcurveto
          -7 -22 rlineto
          0 30 0 -21 vvcurveto
          -23 -35 -29 -49 -35 vhcurveto
          -123 -90 -47 -54 -66 vvcurveto
          hintmask 11111000
          -74 62 -52 87 vhcurveto
          endchar
        </CharString>
        <CharString name="quotedbl">
          -186 467 230 hstem
          71 233 vstem
          81 697 rmoveto
          -10 -230 rlineto
          23 hlineto
          79 230 rlineto
          -92 hlineto
          132 hmoveto
          -9 -230 rlineto
          22 hlineto
          78 230 rlineto
          -91 hlineto
          endchar
        </CharString>
        <CharString name="quotedblbase">
          -141 -120 228 hstem
          -38 295 vstem
          -17 58 callgsubr
          150 hmoveto
          124 211 -12 17 -79 -18 -55 -204 22 -6 rlineto
          endchar
        </CharString>
        <CharString name="quotedblleft">
          -173 424 228 hstem
          76 295 vstem
          200 652 rmoveto
          26 callsubr
          150 hmoveto
          26 callsubr
          endchar
        </CharString>
        <CharString name="quotedblright">
          -173 424 228 hstem
          43 295 vstem
          64 424 rmoveto
          26 callgsubr
          150 hmoveto
          26 callgsubr
          endchar
        </CharString>
        <CharString name="quoteleft">
          -323 424 228 hstem
          86 145 vstem
          210 652 rmoveto
          26 callsubr
          endchar
        </CharString>
        <CharString name="quoteright">
          -323 424 228 hstem
          52 145 vstem
          73 424 rmoveto
          26 callgsubr
          endchar
        </CharString>
        <CharString name="quotesinglbase">
          -290 -120 228 hstem
          -29 145 vstem
          -8 58 callgsubr
          endchar
        </CharString>
        <CharString name="quotesingle">
          -315 467 230 hstem
          101 102 vstem
          111 697 rmoveto
          -10 -230 rlineto
          24 hlineto
          78 230 rlineto
          -92 hlineto
          endchar
        </CharString>
        <CharString name="r">
          -104 364 149 hstem
          59 373 -5 callsubr
          endchar
        </CharString>
        <CharString name="racute">
          72 callgsubr
          59 380 vstem
          225 558 -97 callgsubr
          128 -122 -81 callgsubr
          endchar
        </CharString>
        <CharString name="radical">
          15 462 29 207 29 hstem
          23 571 vstem
          510 678 rmoveto
          84 20 -1 29 rlineto
          -123 hlineto
          -198 -615 -112 379 rlineto
          -137 hlineto
          1 -29 60 -21 155 -454 41 9 230 682 rlineto
          endchar
        </CharString>
        <CharString name="rcaron">
          90 callsubr
          200 -77 callgsubr
          153 -279 -81 callgsubr
          endchar
        </CharString>
        <CharString name="rcommaaccent">
          72 callgsubr
          19 413 -5 callsubr
          -224 -467 -62 callsubr
        </CharString>
        <CharString name="registered">
          11 209 32 63 17 123 19 123 24 53 33 hstem
          10 32 122 50 88 56 107 31 9 callgsubr
          32 hmoveto
          119 93 92 118 119 93 -92 -119 -119 -93 -92 -119 -118 -93 92 119 vhcurveto
          277 -148 rmoveto
          77 18 hlineto
          -31 8 -35 63 -20 35 -8 17 -16 5 rlinecurve
          61 13 11 45 28 vvcurveto
          34 -28 40 -75 vhcurveto
          -125 -19 hlineto
          34 -7 rlineto
          -254 vlineto
          -34 -9 rlineto
          -17 117 17 vlineto
          -33 9 rlineto
          114 6 vlineto
          30 3 -3 -137 66 hvcurveto
          -79 159 rmoveto
          -26 123 20 hlineto
          48 20 -23 -34 -37 -20 -29 -42 hvcurveto
          endchar
        </CharString>
        <CharString name="ring">
          -240 536 35 131 35 hstem
          103 54 93 54 vstem
          188 -23 callgsubr
          endchar
        </CharString>
        <CharString name="ring.case">
          -240 639 35 111 35 hstem
          120 54 93 54 vstem
          205 639 -65 callgsubr
          endchar
        </CharString>
        <CharString name="s">
          17 callgsubr
          -34 callgsubr
          endchar
        </CharString>
        <CharString name="sacute">
          17 callgsubr
          171 558 -97 callgsubr
          73 -101 -96 callsubr
          endchar
        </CharString>
        <CharString name="sacute.loclPLK">
          17 callgsubr
          214 544 rmoveto
          -54 callgsubr
          30 -87 -96 callsubr
          endchar
        </CharString>
        <CharString name="scaron">
          17 callgsubr
          164 -77 callgsubr
          80 -258 -96 callsubr
          endchar
        </CharString>
        <CharString name="scedilla">
          -103 32 callgsubr
          35 48 418 48 hstem
          66 70 31 65 37 75 vstem
          244 457 rmoveto
          20 31 -5 -8 15 hvcurveto
          8 -74 rlineto
          29 hlineto
          33 106 rlineto
          20 -39 -47 9 -39 hhcurveto
          -116 -73 -69 -92 -58 35 -33 34 -16 hvcurveto
          76 -35 rlineto
          42 -19 16 -23 -28 vvcurveto
          -66 -45 -27 -69 -37 -23 7 8 -20 vhcurveto
          -7 86 rlineto
          -30 hlineto
          -31 -120 35 -20 46 -7 40 -2 rlinecurve
          -30 -57 -73 callsubr
          19 36 rlineto
          117 5 68 62 98 vvcurveto
          61 -33 30 -44 21 vhcurveto
          -72 35 rlineto
          -39 19 -20 16 36 vvcurveto
          46 40 36 68 vhcurveto
          endchar
        </CharString>
        <CharString name="scircumflex">
          17 callgsubr
          355 -77 callsubr
          -111 -95 -96 callsubr
          endchar
        </CharString>
        <CharString name="scommaaccent">
          17 callgsubr
          -34 callgsubr
          -63 -488 -62 callsubr
        </CharString>
        <CharString name="section">
          -95 -9 46 541 49 hstemhm
          27 29.5 38.5 68 92 71 11 33 hintmask 00000000
          hintmask 11111100
          335 569 rmoveto
          4 -76 rlineto
          31 hlineto
          38 106 rlineto
          0 -60 28 -78 -83 -92 -40 -99 -63 61 -31 180 -177 vhcurveto
          5 9 6 11 22 73 -184 93 79 vvcurveto
          69 63 5 36 28 33 -5 -4 12 vhcurveto
          -281 -439 rmoveto
          -27 hlineto
          -34 -118 rlineto
          2 69 -21 79 hhcurveto
          hintmask 11111000
          93 90 58 85 51 -60 32 -189 187 hvcurveto
          -6 -9 -5 -20 -11 -78 189 -91 -74 vvcurveto
          -54 -59 -30 -55 -38 -31 9 4 -13 vhcurveto
          hintmask 11111100
          -5 80 rlineto
          endchar
        </CharString>
        <CharString name="semicolon">
          -235 362 133 hstem
          67 133 vstem
          67 46 callgsubr
          70 -300 59 callsubr
        </CharString>
        <CharString name="seven">
          -3 544 67 hstem
          64 434 vstem
          103 611 rmoveto
          -11 -67 rlineto
          324 hlineto
          -352 -539 78 -25 356 599 -11 32 rlineto
          -384 hlineto
          endchar
        </CharString>
        <CharString name="seven.dnom">
          -94 382 46 hstem
          82 316 vstem
          86 329 rmoveto
          34 hlineto
          26 53 rlineto
          186 hlineto
          -250 51 callgsubr
        </CharString>
        <CharString name="seven.numr">
          -94 557 45 hstem
          92 316 vstem
          96 502 21 callsubr
          endchar
        </CharString>
        <CharString name="seven.osf">
          -3 456 67 hstem
          48 435 vstem
          88 523 rmoveto
          -11 -67 rlineto
          319 hlineto
          -147 -180 -114 -175 -87 -186 80 -21 rcurveline
          88 206 111 191 156 200 -11 32 rcurveline
          -384 hlineto
          endchar
        </CharString>
        <CharString name="seveneighths">
          465 -9 39 370 39 118 45 hstemhm
          592 24 callgsubr
          hintmask 11110100
          609 -51 callsubr
          -513 -109 21 callsubr
          498 -405 -50 callsubr
        </CharString>
        <CharString name="six">
          -33 callgsubr
        </CharString>
        <CharString name="six.dnom">
          -94 -9 41 188 43 136 60 callsubr
          227 58 callsubr
          6 -20 -21 3 -21 hhcurveto
          -85 -146 -59 -210 -40 hvcurveto
          -4 -23 -3 55 callgsubr
          -40 -12 -24 -34 vhcurveto
          -17 -66 rmoveto
          32 27 46 27 39 hhcurveto
          42 13 -23 -34 -71 -37 -60 -77 47 callsubr
        </CharString>
        <CharString name="six.numr">
          -94 162 40 189 43 135 40 hstem
          30 72 173 77 vstem
          124 397 rmoveto
          115 31 88 57 69 hhcurveto
          10 16 -1 -4 21 hvcurveto
          12 37 rlineto
          5 -20 -22 3 -21 hhcurveto
          -85 -145 -59 -209 -41 hvcurveto
          -4 -23 -3 -21 -20 vvcurveto
          -67 30 -48 94 177 21 148 31 51 -29 42 -80 -45 -39 -13 -24 -35 vhcurveto
          -17 -66 rmoveto
          32 28 46 28 39 hhcurveto
          42 13 -24 -33 -72 -39 -60 -76 -43 -15 32 45 16 2 17 3 19 hvcurveto
          endchar
        </CharString>
        <CharString name="six.osf">
          -33 callgsubr
        </CharString>
        <CharString name="slash">
          -142 -68 737 hstem
          35 299 vstem
          334 51 callsubr
        </CharString>
        <CharString name="space">
          -310 endchar
        </CharString>
        <CharString name="sterling">
          -3 0 55 208 44 259 53 hstem
          412 40 vstem
          186 151 rmoveto
          20 112 rlineto
          176 hlineto
          16 44 rlineto
          -184 hlineto
          6 36 rlineto
          129 24 24 94 86 hhcurveto
          20 17 -3 -5 19 hvcurveto
          4 -94 rlineto
          38 hlineto
          32 127 rlineto
          17 -36 -45 11 -52 hhcurveto
          -132 -40 -103 -209 -39 hvcurveto
          -88 hlineto
          -15 -44 rlineto
          96 hlineto
          -21 -110 rlineto
          -13 -69 -103 -43 0 vvcurveto
          5 -41 rlineto
          376 hlineto
          44 90 -13 14 -55 -44 -263 -10 42 20 47 47 7 34 rlinecurve
          endchar
        </CharString>
        <CharString name="summation">
          27 -78 78 569 52 hstemhm
          424 38 -33 38 hintmask 00000000
          hintmask 11100000
          424 474 rmoveto
          38 147 -452 -45 hlineto
          233 -307 -233 -317 rlineto
          -30 vlineto
          hintmask 11010000
          457 169 -38 hlineto
          -25 -91 rlineto
          -294 hlineto
          213 288 rlineto
          10 vlineto
          -200 271 rlineto
          hintmask 11100000
          277 hlineto
          24 -95 rlineto
          endchar
        </CharString>
        <CharString name="t">
          -159 -9 59 389 54 hstemhm
          56 292 -277 187 hintmask 11100000
          231 439 -36 callgsubr
          endchar
        </CharString>
        <CharString name="tbar">
          -159 -9 59 216 46 127 54 hstemhm
          28 320 -277 187 hintmask 11110000
          348 439 rmoveto
          54 -107 vlineto
          19 107 rlineto
          -31 hlineto
          hintmask 11101000
          -71 -110 -102 -28 4 -23 rlineto
          88 hlineto
          -25 -127 rlineto
          -87 hlineto
          -8 -46 rlineto
          86 hlineto
          -22 -109 -21 -106 -17 vvcurveto
          -27 11 -16 35 27 55 9 19 59 vhcurveto
          31 -105 vlineto
          43 216 rlineto
          111 46 -101 hlineto
          25 127 rlineto
          hintmask 11110000
          117 hlineto
          endchar
        </CharString>
        <CharString name="tcaron">
          -153 -9 59 389 54 hstemhm
          55 343 -328 187 hintmask 11100000
          322 726 rmoveto
          16 -200 rlineto
          23 hlineto
          37 186 -48 14 rlineto
          -28 hlineto
          -92 -287 -36 callgsubr
          endchar
        </CharString>
        <CharString name="thorn">
          21 0 45 401 60 hstem
          396 85 vstem
          228 727 rmoveto
          -31 -63 -15 -23 -57 hvcurveto
          5 -22 77 -10 -147 -834 20 callsubr
          51 287 rlineto
          1 5 2 13 6 vvcurveto
          61 callsubr
          -14 -682 rmoveto
          -28 -33 13 13 -16 hvcurveto
          37 211 5 31 5 32 rrcurveto
          39 31 80 62 69 callgsubr
        </CharString>
        <CharString name="three">
          -3 -9 50 261 43 224 58 hstemhm
          305 89 -71 94 hintmask 00000000
          hintmask 11101000
          263 627 14 callgsubr
          -106 -91 -58 40 callsubr
          96 119 41 callgsubr
        </CharString>
        <CharString name="three.dnom">
          -94 -7 43 172 33 152 46 hstemhm
          268 77 -55 69 callsubr
          439 -2 callsubr
          hintmask 11110000
          -13 callgsubr
          hintmask 11101000
          39 callsubr
        </CharString>
        <CharString name="three.numr">
          -94 163 44 171 34 151 46 hstemhm
          269 77 -56 69 callsubr
          609 -1 callgsubr
          hintmask 11110000
          -10 callsubr
          hintmask 11101000
          52 callgsubr
          endchar
        </CharString>
        <CharString name="three.osf">
          -3 -100 50 259 43 224 58 hstemhm
          288 89 -71 94 hintmask 00000000
          hintmask 11101000
          246 534 14 callgsubr
          -105 -91 -57 40 callsubr
          95 118 41 callgsubr
        </CharString>
        <CharString name="threeeighths">
          458 -9 39 133 44 171 34 -12 39 124 46 hstemhm
          269 77 -56 78 217 24 callgsubr
          hintmask 1101110101000000
          619 -51 callsubr
          hintmask 1110101101000000
          -355 -2 -1 callgsubr
          hintmask 1110110101000000
          -10 callsubr
          hintmask 1110101101000000
          52 callgsubr
          hintmask 1101110101000000
          323 -512 -26 callgsubr
          hintmask 1101110010100000
          -22 callgsubr
          hintmask 1101110101000000
          34 callsubr
          hintmask 1101110010100000
          123 241 rmoveto
          -26 callsubr
          4 79 callgsubr
          hintmask 1101110101000000
          -43 callgsubr
        </CharString>
        <CharString name="threequarters">
          387 96 46 21 44 171 34 151 46 hstemhm
          259 77 -56 78 hintmask 10111000
          585 -51 callsubr
          hintmask 10110100
          -331 -2 -1 callgsubr
          hintmask 11111000
          -10 callsubr
          hintmask 10110100
          52 callgsubr
          hintmask 10111000
          437 -609 rmoveto
          -33 callsubr
        </CharString>
        <CharString name="tilde">
          -240 584 89 callsubr
          58 290 hintmask 10100000
          348 677 -63 callgsubr
          hintmask 01100000
          -62 callgsubr
          hintmask 10100000
          -30 callgsubr
          endchar
        </CharString>
        <CharString name="tilde.case">
          -240 670 40 callgsubr
          69 302 hintmask 10100000
          371 23 callsubr
          hintmask 01100000
          -82 callgsubr
          hintmask 10100000
          -61 callsubr
          endchar
        </CharString>
        <CharString name="tildecomb">
          -495 670 40 callgsubr
          -186 302 hintmask 10100000
          116 23 callsubr
          hintmask 01100000
          -82 callgsubr
          hintmask 10100000
          -61 callsubr
          endchar
        </CharString>
        <CharString name="trademark">
          364 278 24 302 40 hstem
          128 64 187 38.5 273.5 60.5 vstem
          5 644 rmoveto
          3 -92 rlineto
          29 hlineto
          13 52 rlineto
          78 -291 hlineto
          -64 -11 rlineto
          -25 192 25 vlineto
          -64 11 rlineto
          291 78 vlineto
          12 -52 rlineto
          30 hlineto
          4 92 rlineto
          -311 hlineto
          461 -366 rmoveto
          24 vlineto
          -53 11 9 266 110 -308 47 7 106 299 12 -264 -54 -11 rlineto
          -24 171 24 vlineto
          -56 11 -13 294 53 12 rlineto
          25 -126 vlineto
          -105 -293 -101 293 rlineto
          -129 -25 hlineto
          48 -11 -12 -295 -48 -11 rlineto
          -24 141 vlineto
          endchar
        </CharString>
        <CharString name="two">
          -3 0 70 495 62 hstem
          367 92 vstem
          267 565 rmoveto
          75 25 -38 -45 -82 -39 -66 -92 -80 hvcurveto
          -234 -204 10 -50 rlineto
          383 hlineto
          17 78 -310 -16 182 150 rlineto
          118 98 57 95 86 vvcurveto
          101 -68 35 -91 -80 -57 -31 -28 -52 vhcurveto
          10 -39 rlineto
          24 55 62 12 29 hhcurveto
          endchar
        </CharString>
        <CharString name="two.dnom">
          -94 0 49 345 45 hstem
          301 77 vstem
          238 394 -6 callsubr
        </CharString>
        <CharString name="two.numr">
          -94 172 49 346 44 hstem
          301 77 vstem
          -10 callgsubr
          endchar
        </CharString>
        <CharString name="two.osf">
          -3 0 70 402 62 hstem
          341 92 vstem
          232 141 rmoveto
          142 92 59 85 85 vvcurveto
          93 -72 38 -90 -78 -65 -28 -25 -44 vhcurveto
          11 -45 rlineto
          24 56 57 12 38 hhcurveto
          69 26 -38 -49 -66 -46 -53 -111 -83 hvcurveto
          -181 -135 9 -48 rlineto
          383 hlineto
          17 78 -302 -16 122 79 rlineto
          endchar
        </CharString>
        <CharString name="u">
          1 callgsubr
          hintmask 00000000
          hintmask 01110000
          352 94 rmoveto
          hintmask 10110000
          -87 callgsubr
          hintmask 01110000
          -105 callsubr
          -36 callsubr
          vhcurveto
          endchar
        </CharString>
        <CharString name="uacute">
          11 callsubr
          270 558 -97 callgsubr
          hintmask 01110000
          84 -464 rmoveto
          hintmask 10110000
          -87 callgsubr
          hintmask 01110000
          -105 callsubr
          -36 callsubr
          vhcurveto
          endchar
        </CharString>
        <CharString name="ubreve">
          -15 callgsubr
          525 54 hstemhm
          73 81 93 36 62 157 hintmask 10111100
          348 581 -103 callsubr
          hintmask 01111100
          4 -487 rmoveto
          hintmask 10111100
          -87 callgsubr
          hintmask 01111100
          -105 callsubr
          -36 callsubr
          vhcurveto
          endchar
        </CharString>
        <CharString name="ucircumflex">
          11 callsubr
          440 -77 callsubr
          hintmask 01110000
          -86 -458 rmoveto
          hintmask 10110000
          -87 callgsubr
          hintmask 01110000
          -105 callsubr
          -36 callsubr
          vhcurveto
          endchar
        </CharString>
        <CharString name="udieresis">
          -15 callgsubr
          527 113 hstemhm
          75 81 44 114 33 157 -110 115 hintmask 10111010
          314 638 -24 callsubr
          -155 -544 -78 callgsubr
        </CharString>
        <CharString name="ugrave">
          11 callsubr
          201 661 -79 callsubr
          hintmask 01110000
          153 -567 rmoveto
          hintmask 10110000
          -87 callgsubr
          hintmask 01110000
          -105 callsubr
          -36 callsubr
          vhcurveto
          endchar
        </CharString>
        <CharString name="uhorn">
          1 callgsubr
          71 82 hintmask 10111000
          444 202 -73 callgsubr
        </CharString>
        <CharString name="uhungarumlaut">
          11 callsubr
          225 544 rmoveto
          -54 callgsubr
          161 hmoveto
          -54 callgsubr
          hintmask 01110000
          -32 -450 rmoveto
          hintmask 10110000
          -87 callgsubr
          hintmask 01110000
          -105 callsubr
          -36 callsubr
          vhcurveto
          endchar
        </CharString>
        <CharString name="umacron">
          -15 callgsubr
          523 52 hstemhm
          75 81 21 callgsubr
          hintmask 10111000
          241 631 -38 callsubr
          hintmask 01111000
          113 -537 rmoveto
          hintmask 10111000
          0 -7 -54 -7 vvcurveto
          -25 11 -16 35 26 29 9 19 56 vhcurveto
          30 -79 vlineto
          1 3 71 81 17 hvcurveto
          63 303 -48 callsubr
          endchar
        </CharString>
        <CharString name="underscore">
          -43 -59 40 hstem
          -1 447 vstem
          438 -59 rmoveto
          8 40 rlineto
          -440 hlineto
          -7 -40 rlineto
          439 hlineto
          endchar
        </CharString>
        <CharString name="uni00A0">
          -310 endchar
        </CharString>
        <CharString name="uni00AD">
          -202 212 49 hstem
          15 264 vstem
          279 212 rmoveto
          49 -264 -49 264 vlineto
          endchar
        </CharString>
        <CharString name="uni00B2">
          -94 279 50 345 44 hstem
          300 76 vstem
          236 674 rmoveto
          42 22 -22 -35 -59 -41 -48 -60 -49 hvcurveto
          -175 -143 rlineto
          -39 290 vlineto
          29 102 -32 4 -39 -56 rlineto
          -168 hlineto
          134 104 rlineto
          77 60 61 64 72 vvcurveto
          65 -53 24 -69 -52 -55 -17 -20 -40 vhcurveto
          11 -35 rlineto
          18 42 93 callgsubr
        </CharString>
        <CharString name="uni00B3">
          -94 269 42 171 34 153 45 hstemhm
          268 77 -56 69 callsubr
          714 rmoveto
          -50 -55 -18 -21 -39 hvcurveto
          9 -34 rlineto
          18 41 36 10 24 hhcurveto
          40 19 -18 -27 -52 -41 -47 -90 -9 hvcurveto
          -4 -34 rlineto
          hintmask 11110000
          54 60 -6 -59 -74 -58 -32 -65 -26 -28 3 17 -41 hvcurveto
          -17 -39 rlineto
          -15 33 44 -8 47 hhcurveto
          106 82 48 101 48 -32 32 -55 11 hvcurveto
          hintmask 11101000
          55 22 54 42 66 vvcurveto
          50 -45 25 -58 vhcurveto
          endchar
        </CharString>
        <CharString name="uni00B5">
          -41 callgsubr
        </CharString>
        <CharString name="uni00B9">
          -94 650 30 hstem
          103 195 vstem
          103 650 rmoveto
          113 hlineto
          -72 -372 rlineto
          71 hlineto
          83 430 -189 -28 -6 -30 rlineto
          endchar
        </CharString>
        <CharString name="uni0162">
          17 32 callgsubr
          44 33 526 52 hstem
          228 65 195 37 vstem
          93 611 rmoveto
          -19 -140 rlineto
          34 hlineto
          36 88 rlineto
          133 hlineto
          -98 -506 -105 -71 callsubr
          126 hlineto
          -35 -66 -73 callsubr
          23 44 rlineto
          123 -16 callsubr
          -96 20 98 506 rlineto
          133 -88 37 hlineto
          33 140 rlineto
          -465 hlineto
          endchar
        </CharString>
        <CharString name="uni0163">
          -153 32 callgsubr
          63 31 389 54 hstem
          147 65 vstem
          230 439 23 callgsubr
          -71 -110 -102 -28 4 -23 rlineto
          88 hlineto
          -26 -133 -51 -246 -26 vvcurveto
          -25 9 -15 29 -3 vhcurveto
          -30 -57 -73 callsubr
          19 37 30 3 43 8 45 15 rlinecurve
          31 -105 vlineto
          78 389 rlineto
          endchar
        </CharString>
        <CharString name="uni018F">
          126 -9 48 241 49 249 48 hstem
          35 90 371 90 vstem
          586 395 rmoveto
          153 -80 78 -167 -81 -65 -17 -20 -53 vhcurveto
          -14 -115 rlineto
          34 hlineto
          40 84 rlineto
          15 49 41 5 36 hhcurveto
          128 41 -74 -117 1 hvcurveto
          -19 -1 -19 -3 -20 vhcurveto
          -445 hlineto
          -8 -37 -4 -38 -39 vvcurveto
          -129 63 -95 157 189 142 157 247 vhcurveto
          -322 -356 rmoveto
          -104 -35 75 103 17 2 21 3 25 hvcurveto
          354 hlineto
          -121 -25 -68 -120 -127 hhcurveto
          endchar
        </CharString>
        <CharString name="uni019D">
          181 -167 55 690 33 hstem
          -131 836 vstem
          496 611 rmoveto
          -6 -33 76 -19 -83 -429 -249 481 rlineto
          -130 hlineto
          -6 -33 70 -19 -98 -559 rlineto
          83 callgsubr
          -62 hhcurveto
          -28 -27 5 6 -22 hvcurveto
          -8 -37 rlineto
          -15 23 35 -14 42 hhcurveto
          83 54 55 102 18 hvcurveto
          54 307 23 133 9 57 254 -495 rcurveline
          46 8 108 559 81 -6 callgsubr
          -209 hlineto
          endchar
        </CharString>
        <CharString name="uni01C4">
          67 callgsubr
          869 804 -83 callgsubr
          -510 -193 -53 callgsubr
        </CharString>
        <CharString name="uni01C5">
          48 callgsubr
          800 -77 callgsubr
          -441 -104 -76 callgsubr
          hintmask 10011100
          539 -604 -82 callsubr
          hintmask 00111100
          -18 callgsubr
          hintmask 10011100
          44 callgsubr
          endchar
        </CharString>
        <CharString name="uni01C6">
          -42 callsubr
          270 514 rmoveto
          -27 -18 79 -145 rlineto
          60 hlineto
          120 145 -20 19 -120 -93 -92 92 rlineto
          83 -755 -82 callsubr
          hintmask 01001011
          -319 -405 rlineto
          hintmask 10011011
          27 -16 rlineto
          0 25 36 32 vhcurveto
          hintmask 10001011
          44 callgsubr
          -442 194 rmoveto
          hintmask 00100111
          -43 callsubr
          hintmask 10001011
          30 callsubr
        </CharString>
        <CharString name="uni01C7">
          259 -149 55 94 56 522 33 hstem
          -11 812 vstem
          391 hmoveto
          -66 callsubr
          58 -149 rmoveto
          -72 callsubr
        </CharString>
        <CharString name="uni01C8">
          231 -167 55 112 56 522 33 -29 115 hstemhm
          606 118 hintmask 00000000
          hintmask 11011000
          665 10 callgsubr
          -274 -697 rmoveto
          28 147 rlineto
          -36 hlineto
          -41 -91 rlineto
          -181 hlineto
          hintmask 11101000
          98 502 -46 callsubr
          -6 -33 -75 callsubr
          hintmask 11011000
          402 hlineto
          292 482 rmoveto
          15 -7 8 -13 -23 -75 -15 -20 -50 35 callsubr
          -76 -438 rlineto
          hintmask 11101000
          83 callgsubr
          -63 hhcurveto
          -27 -27 5 6 -22 hvcurveto
          -8 -37 rlineto
          0 45 -29 63 96 58 60 97 18 vhcurveto
          hintmask 11011000
          34 189 51 297 6 vvcurveto
          endchar
        </CharString>
        <CharString name="uni01C9">
          72 -167 55 103 60 531 115 hstem
          57 173 217 118 vstem
          62 callsubr
          -64 callsubr
          61 callsubr
          263 -30 rmoveto
          -21 callgsubr
          18 -215 -86 callsubr
        </CharString>
        <CharString name="uni01CA">
          486 70 callgsubr
          -14 1042 vstem
          496 -4 callsubr
          180 -760 rmoveto
          -72 callsubr
        </CharString>
        <CharString name="uni01CB">
          458 -167 55 112 -21 callsubr
          -29 115 hstemhm
          833 118 hintmask 00000000
          hintmask 11011000
          892 10 callgsubr
          hintmask 11101000
          -396 -86 -90 callgsubr
          414 -129 -86 callsubr
        </CharString>
        <CharString name="uni01CC">
          347 -167 55 103 83 callsubr
          76 115 hstemhm
          336 166 -91 87 224 118 hintmask 11110110
          781 10 callgsubr
          -564 -312 rmoveto
          5 21 12 61 14 vvcurveto
          14 -6 10 -13 -31 -63 18 callgsubr
          75 -8 -88 -446 95 15 54 325 rlineto
          85 callsubr
          hintmask 11111010
          -39 -75 -293 -33 vvcurveto
          -37 26 -15 37 28 37 11 17 38 vhcurveto
          29 vlineto
          hintmask 11110110
          -86 hlineto
          30 132 52 230 34 vvcurveto
          44 -24 18 -37 -59 -99 -53 -68 -62 vhcurveto
          582 97 -86 callsubr
        </CharString>
        <CharString name="uni01CD">
          84 callsubr
          266 804 -83 callgsubr
          90 -581 -102 callgsubr
        </CharString>
        <CharString name="uni01CE">
          -22 callsubr
          239 -77 callgsubr
          169 -513 rmoveto
          -94 callsubr
        </CharString>
        <CharString name="uni01CF">
          -167 13 callsubr
          -11 418 vstem
          155 804 -83 callgsubr
          -48 -193 -89 callsubr
          endchar
        </CharString>
        <CharString name="uni01D0">
          75 callgsubr
          hstemhm
          59 301 -298 166 hintmask 11000000
          128 -77 callgsubr
          99 -232 -11 callgsubr
          hintmask 10100000
          -86 callgsubr
          hintmask 11000000
          -28 callsubr
        </CharString>
        <CharString name="uni01D1">
          -31 callsubr
          301 804 -83 callgsubr
          84 -178 -104 callsubr
          endchar
        </CharString>
        <CharString name="uni01D2">
          -47 callsubr
          vstem
          231 -77 callgsubr
          82 -210 -101 callsubr
        </CharString>
        <CharString name="uni01D3">
          -18 callsubr
          hstem
          80 79 vstem
          296 804 -83 callgsubr
          211 -568 rmoveto
          -14 callgsubr
          186 48 157 89 17 vhcurveto
          endchar
        </CharString>
        <CharString name="uni01D4">
          1 callgsubr
          hintmask 10110000
          263 -77 callgsubr
          hintmask 01110000
          89 -621 rmoveto
          hintmask 10110000
          -87 callgsubr
          hintmask 01110000
          -105 callsubr
          -36 callsubr
          vhcurveto
          endchar
        </CharString>
        <CharString name="uni01D5">
          -18 callsubr
          60 113 78 54 hstem
          80 79 85 18 callsubr
          vstem
          315 916 -38 callgsubr
          43 -190 -100 callgsubr
          -46 -490 rmoveto
          -14 callgsubr
          186 48 157 89 17 vhcurveto
          endchar
        </CharString>
        <CharString name="uni01D6">
          -15 callgsubr
          497 113 78 54 hstemhm
          73 81 43 114 34 157 -111 115 hintmask 10111101
          268 798 -38 callgsubr
          43 -190 -100 callgsubr
          hintmask 01111110
          -154 -514 rmoveto
          hintmask 10111110
          -87 callgsubr
          hintmask 01111101
          -105 callsubr
          vhcurveto
          hintmask 01111110
          66 callsubr
        </CharString>
        <CharString name="uni01D7">
          -18 callsubr
          60 113 hstem
          80 79 85 18 callsubr
          vstem
          377 824 -97 callgsubr
          -19 -98 -100 callgsubr
          -46 -490 rmoveto
          -14 callgsubr
          186 48 157 89 17 vhcurveto
          endchar
        </CharString>
        <CharString name="uni01D8">
          2 callsubr
          330 706 -97 callgsubr
          -19 -98 -24 callsubr
          -154 -514 -78 callgsubr
        </CharString>
        <CharString name="uni01D9">
          -18 callsubr
          60 113 hstem
          80 79 85 18 callsubr
          vstem
          329 977 -83 callgsubr
          29 -251 -100 callgsubr
          -46 -490 rmoveto
          -14 callgsubr
          186 48 157 89 17 vhcurveto
          endchar
        </CharString>
        <CharString name="uni01DA">
          2 callsubr
          282 859 -83 callgsubr
          29 -251 -24 callsubr
          -154 -514 -78 callgsubr
        </CharString>
        <CharString name="uni01DB">
          -18 callsubr
          60 113 hstem
          80 79 85 18 callsubr
          vstem
          256 927 -79 callsubr
          102 -201 -100 callgsubr
          -46 -490 rmoveto
          -14 callgsubr
          186 48 157 89 17 vhcurveto
          endchar
        </CharString>
        <CharString name="uni01DC">
          2 callsubr
          209 809 -79 callsubr
          102 -201 -24 callsubr
          -154 -514 -78 callgsubr
        </CharString>
        <CharString name="uni01EA">
          -195 44 142 -16 callgsubr
          hstem
          42 90 157 69 157 88 vstem
          452 53 rmoveto
          100 75 51 136 142 vvcurveto
          127 -60 93 -158 -222 -121 -200 -211 -129 63 -95 157 36 32 5 9 31 vhcurveto
          -51 -47 -21 -47 -35 vvcurveto
          -38 24 -33 57 50 33 26 24 20 vhcurveto
          -14 16 rlineto
          -16 -18 -18 -6 -18 hhcurveto
          -29 -18 16 33 55 50 63 44 37 hvcurveto
          -320 164 rmoveto
          94 44 267 197 110 32 -79 -98 -144 -64 -218 -180 -104 -35 75 103 vhcurveto
          endchar
        </CharString>
        <CharString name="uni01EB">
          2 -206 44 153 49 415 50 hstem
          33 86 54 69 136 86 vstem
          325 32 rmoveto
          85 56 54 112 155 vvcurveto
          99 -48 51 -103 -162 -118 -133 -229 -100 47 -52 103 23 22 3 5 22 vhcurveto
          -55 -50 -22 -48 -36 -71 callgsubr
          54 50 68 33 25 hvcurveto
          -206 106 rmoveto
          131 47 186 130 63 19 -39 -59 -131 -47 -186 -129 -63 -20 39 59 vhcurveto
          endchar
        </CharString>
        <CharString name="uni01F1">
          67 callgsubr
          359 611 -53 callgsubr
        </CharString>
        <CharString name="uni01F2">
          48 callgsubr
          359 611 -76 callgsubr
          hintmask 10011100
          539 -604 -82 callsubr
          hintmask 00111100
          -18 callgsubr
          hintmask 10011100
          44 callgsubr
          endchar
        </CharString>
        <CharString name="uni01F3">
          -42 callsubr
          353 -241 -82 callsubr
          hintmask 01001011
          -319 -405 rlineto
          hintmask 10011011
          27 -16 rlineto
          0 25 36 32 vhcurveto
          hintmask 10001011
          44 callgsubr
          -442 194 rmoveto
          hintmask 00100111
          -43 callsubr
          hintmask 10001011
          30 callsubr
        </CharString>
        <CharString name="uni01F4">
          6 callsubr
          333 651 -97 callgsubr
          150 -84 rmoveto
          -95 callgsubr
          endchar
        </CharString>
        <CharString name="uni01F5">
          10 3 callgsubr
          hstem
          40 87 vstem
          234 558 -97 callgsubr
          80 -478 -99 callsubr
        </CharString>
        <CharString name="uni0200">
          84 callsubr
          276 -68 callgsubr
          -82 -423 -102 callgsubr
        </CharString>
        <CharString name="uni0201">
          -22 callsubr
          242 546 -65 callsubr
          5 -344 rmoveto
          -94 callsubr
        </CharString>
        <CharString name="uni0202">
          55 -11 callsubr
          471 54 hstem
          444 36 vstem
          379 791 -95 callsubr
          -23 -568 -102 callgsubr
        </CharString>
        <CharString name="uni0203">
          -52 callsubr
          151 54 5 callgsubr
          -56 36 hintmask 10111010
          345 705 -95 callsubr
          63 -503 -83 callsubr
          hintmask 01111100
          -72 callgsubr
          hintmask 10111100
          -88 callsubr
          hintmask 10111010
          -39 callgsubr
          hintmask 01111010
          -99 callgsubr
          endchar
        </CharString>
        <CharString name="uni0204">
          33 -40 callgsubr
          hstem
          453 38 vstem
          265 -68 callgsubr
          -39 -257 -103 callgsubr
          endchar
        </CharString>
        <CharString name="uni0205">
          -42 callgsubr
          16 callgsubr
          188 546 -65 callsubr
          -39 -41 -101 callgsubr
        </CharString>
        <CharString name="uni0206">
          33 -40 callgsubr
          126 54 hstemhm
          433 36 -16 38 hintmask 11111000
          368 791 -95 callsubr
          20 -402 rmoveto
          -59 callgsubr
          hintmask 11110100
          -55 callsubr
          -409 hlineto
          -98 callgsubr
          hintmask 11111000
          -34 hlineto
          endchar
        </CharString>
        <CharString name="uni0207">
          -42 callgsubr
          146 54 hstemhm
          33 83 222 77 -59 36 hintmask 00000000
          hintmask 11111010
          291 705 -95 callsubr
          hintmask 11111100
          19 -200 -101 callgsubr
        </CharString>
        <CharString name="uni0208">
          -167 13 callsubr
          -11 365 vstem
          165 -68 callgsubr
          -220 -35 -89 callsubr
          endchar
        </CharString>
        <CharString name="uni0209">
          75 callgsubr
          hstemhm
          15 295 -248 166 hintmask 11000000
          131 546 -65 callsubr
          -65 -63 -11 callgsubr
          hintmask 10100000
          -86 callgsubr
          hintmask 11000000
          -28 callsubr
        </CharString>
        <CharString name="uni020A">
          -167 -28 callgsubr
          126 54 hstem
          333 36 vstem
          268 791 -95 callsubr
          -161 -180 -89 callsubr
          endchar
        </CharString>
        <CharString name="uni020B">
          75 callgsubr
          602 54 hstem
          62 166 71 36 vstem
          234 705 -95 callsubr
          -7 -222 rmoveto
          44 callsubr
          10 callsubr
          35 callsubr
          rlineto
          -28 -144 -49 -239 -22 vvcurveto
          -26 13 -16 33 25 39 9 19 56 vhcurveto
          30 -85 vlineto
          -28 callsubr
        </CharString>
        <CharString name="uni020C">
          -31 callsubr
          311 -68 callgsubr
          -88 -20 -104 callsubr
          endchar
        </CharString>
        <CharString name="uni020D">
          -47 callsubr
          vstem
          234 546 -65 callsubr
          -82 -41 -101 callsubr
        </CharString>
        <CharString name="uni020E">
          -7 callsubr
          111 54 hstemhm
          42 90 347 36 0 88 hintmask 00000000
          hintmask 11111000
          414 791 -95 callsubr
          hintmask 11110100
          -29 -165 -104 callsubr
          endchar
        </CharString>
        <CharString name="uni020F">
          2 -9 49 415 50 146 54 hstemhm
          33 86 259 86 -62 36 hintmask 00000000
          hintmask 11110100
          337 705 -95 callsubr
          hintmask 11111000
          -24 -200 -101 callsubr
        </CharString>
        <CharString name="uni0210">
          49 22 callgsubr
          hstem
          423 84 vstem
          273 -68 callgsubr
          -69 -646 rmoveto
          -90 callsubr
          endchar
        </CharString>
        <CharString name="uni0211">
          90 callsubr
          181 546 -65 callsubr
          11 -110 -81 callgsubr
          endchar
        </CharString>
        <CharString name="uni0212">
          49 22 callgsubr
          126 54 hstemhm
          423 84 -66 36 hintmask 00000000
          hintmask 11110100
          376 791 -95 callsubr
          -10 -791 rmoveto
          137 -16 callsubr
          -74 22 -55 187 7 32 -49 18 rlinecurve
          hintmask 11111000
          133 31 36 103 62 vvcurveto
          67 -47 56 -125 vhcurveto
          -228 hlineto
          -6 -33 83 -3 callgsubr
          -91 -71 callsubr
          252 -16 callsubr
          -83 20 44 226 rlineto
          36 hlineto
          hintmask 11110100
          57 -7 -2 -277 72 hvcurveto
          hintmask 11111000
          -93 319 rmoveto
          -57 hlineto
          46 240 rlineto
          6 21 22 4 18 hhcurveto
          73 27 -28 -59 -94 -63 -69 -87 hvcurveto
          endchar
        </CharString>
        <CharString name="uni0213">
          -104 364 149 138 54 hstem
          349 36 vstem
          284 705 -95 callsubr
          69 -269 -81 callgsubr
          endchar
        </CharString>
        <CharString name="uni0214">
          -18 callsubr
          hstem
          80 79 vstem
          306 -68 callgsubr
          39 -410 rmoveto
          -14 callgsubr
          186 48 157 89 17 vhcurveto
          endchar
        </CharString>
        <CharString name="uni0215">
          1 callgsubr
          hintmask 10110000
          266 546 -65 callsubr
          hintmask 01110000
          -75 -452 rmoveto
          hintmask 10110000
          -87 callgsubr
          hintmask 01110000
          -105 callsubr
          -36 callsubr
          vhcurveto
          endchar
        </CharString>
        <CharString name="uni0216">
          -18 callsubr
          126 54 hstem
          80 79 315 36 vstem
          409 791 -95 callsubr
          98 -555 rmoveto
          -14 callgsubr
          186 48 157 89 17 vhcurveto
          endchar
        </CharString>
        <CharString name="uni0217">
          -15 callgsubr
          595 54 hstemhm
          73 81 21 callgsubr
          -68 36 hintmask 10110100
          369 705 -95 callsubr
          hintmask 01111000
          -17 -611 rmoveto
          hintmask 10111000
          -87 callgsubr
          hintmask 01110100
          -105 callsubr
          vhcurveto
          hintmask 01111000
          66 callsubr
        </CharString>
        <CharString name="uni021A">
          17 0 33 526 52 hstem
          488 37 vstem
          93 611 -53 callsubr
          137 -642 -62 callsubr
        </CharString>
        <CharString name="uni021B">
          -153 -9 59 389 54 hstemhm
          52 295 -277 187 hintmask 11100000
          230 439 -36 callgsubr
          -68 -470 -62 callsubr
        </CharString>
        <CharString name="uni0232">
          45 -28 callgsubr
          78 54 hstem
          67 530 vstem
          247 743 -38 callgsubr
          150 -165 rmoveto
          -89 callgsubr
          -6 -33 rlineto
          endchar
        </CharString>
        <CharString name="uni0232.loclGUA">
          4 callgsubr
          78 54 hstemhm
          82 37 -27 78 hintmask 11110100
          297 743 -38 callgsubr
          hintmask 11111000
          -176 -827 rmoveto
          -4 83 rlineto
          -35 hlineto
          -36 -116 rlineto
          -34 54 51 -16 74 hhcurveto
          143 89 65 159 31 hvcurveto
          97 502 82 19 6 33 74 callsubr
          -33 75 -19 -71 -365 rlineto
          -43 -26 -51 -51 -93 hhcurveto
          hintmask 11110100
          -78 -24 50 70 33 5 36 8 39 hvcurveto
          45 231 83 19 5 33 rlineto
          -235 hlineto
          -5 -33 74 -19 -44 -228 rlineto
          -8 -41 -6 -40 -36 vvcurveto
          -93 38 -67 128 70 60 26 35 39 vhcurveto
          -12 -57 rlineto
          -127 -24 -59 -49 -97 hhcurveto
          hintmask 11111000
          -38 -46 13 21 -30 hvcurveto
          endchar
        </CharString>
        <CharString name="uni0233">
          -46 579 52 hstem
          121 75 175 72 vstem
          191 631 -38 callsubr
          5 -561 -97 callsubr
          endchar
        </CharString>
        <CharString name="uni0233.loclGUA">
          24 callsubr
          493 52 hstem
          81 81 vstem
          238 631 -38 callsubr
          206 -467 91 callgsubr
          -91 callgsubr
          2 callgsubr
        </CharString>
        <CharString name="uni0237">
          -218 -167 55 hstem
          -131 365 vstem
          234 482 -86 callsubr
        </CharString>
        <CharString name="uni0259">
          -89 -12 48 184 34 197 51 hstem
          -9 77 222 83 vstem
          96 -12 rmoveto
          198 79 185 165 114 -51 50 -108 -43 -47 -12 -24 -44 hvcurveto
          7 -33 rlineto
          9 23 29 9 25 hhcurveto
          97 29 -26 -91 -23 -2 -27 -6 -30 hvcurveto
          -188 -103 -65 -103 -66 49 -32 56 hvcurveto
          22 48 rmoveto
          -35 -15 26 31 83 80 44 125 hvcurveto
          -117 -24 -54 -67 -77 hhcurveto
          endchar
        </CharString>
        <CharString name="uni0272">
          70 -167 55 103 83 callsubr
          hstemhm
          336 166 -91 87 hintmask 11101000
          416 48 rmoveto
          30 132 52 230 34 vvcurveto
          44 -24 18 -37 -59 -99 -53 -68 -62 vhcurveto
          5 21 12 61 14 vvcurveto
          14 -6 10 -13 -31 -63 -16 -19 43 callsubr
          -76 -437 rlineto
          83 callgsubr
          -63 hhcurveto
          -27 -27 5 6 -22 hvcurveto
          -8 -37 rlineto
          0 45 -29 63 96 58 60 97 18 vhcurveto
          18 104 22 135 17 102 rrcurveto
          85 callsubr
          hintmask 11110000
          -39 -75 -293 -33 vvcurveto
          -37 26 -15 37 28 37 11 17 38 vhcurveto
          29 vlineto
          hintmask 11101000
          -86 hlineto
          endchar
        </CharString>
        <CharString name="uni02B0">
          -78 269 51 277 56 112 52 hstemhm
          240 129 -76 72 hintmask 00000000
          hintmask 11101000
          307 320 rmoveto
          59 callgsubr
          -2 1 18 102 18 96 2 11 rlinecurve
          92 callgsubr
          -21 -46 -12 -15 -41 vhcurveto
          2 -23 16 -2 22 -1 16 -1 rlinecurve
          -95 -494 80 11 37 241 rlineto
          65 callgsubr
          hintmask 11110000
          53 callsubr
          hintmask 11101000
          -62 hlineto
          endchar
        </CharString>
        <CharString name="uni02BC">
          -240 526 200 hstem
          181 76 vstem
          197 526 8 callsubr
          endchar
        </CharString>
        <CharString name="uni02C9">
          -240 608 52 hstem
          89 225 vstem
          97 660 -38 callsubr
          endchar
        </CharString>
        <CharString name="uni02E1">
          -278 269 50 446 52 hstem
          46 124 vstem
          181 817 rmoveto
          -21 -46 -12 -15 -41 hvcurveto
          2 -23 16 -2 22 -1 16 -1 rlinecurve
          0 -71 -391 -10 -47 vhcurveto
          -1 -8 -1 -8 -7 vvcurveto
          -21 11 -12 26 17 29 6 15 41 vhcurveto
          29 -57 vlineto
          0 80 441 5 25 vhcurveto
          92 callgsubr
          vhcurveto
          endchar
        </CharString>
        <CharString name="uni02E2">
          -173 268 43 301 41 hstem
          57 61 93 63 vstem
          192 612 rmoveto
          11 21 -6 -4 11 hvcurveto
          5 -59 rlineto
          29 hlineto
          28 87 rlineto
          15 -30 -33 8 -34 hhcurveto
          -89 -54 -47 -80 -40 18 -30 33 -13 hvcurveto
          62 -23 rlineto
          29 -11 12 -10 -19 vvcurveto
          -47 -31 -22 -49 -22 -16 2 3 -15 vhcurveto
          -7 64 rlineto
          -31 hlineto
          -23 -94 rlineto
          -14 29 43 -4 33 hhcurveto
          96 56 53 84 38 -20 25 -33 14 hvcurveto
          -63 25 rlineto
          -27 11 -13 11 18 vvcurveto
          38 27 27 47 vhcurveto
          endchar
        </CharString>
        <CharString name="uni0302">
          -495 650 154 hstem
          -185 278 vstem
          67 650 -96 callgsubr
          endchar
        </CharString>
        <CharString name="uni0304">
          -495 689 54 hstem
          -159 245 vstem
          -151 743 -38 callgsubr
          endchar
        </CharString>
        <CharString name="uni0306">
          -495 669 54 hstem
          -145 36 vstem
          -44 669 -103 callsubr
          endchar
        </CharString>
        <CharString name="uni0307">
          -495 668 117 hstem
          -95 120 vstem
          25 -31 callgsubr
          endchar
        </CharString>
        <CharString name="uni0308">
          -495 671 113 hstem
          -189 18 callsubr
          vstem
          -75 726 -100 callgsubr
          endchar
        </CharString>
        <CharString name="uni030A">
          -495 639 35 111 35 hstem
          -135 54 93 54 vstem
          -50 639 -65 callgsubr
          endchar
        </CharString>
        <CharString name="uni030B">
          -495 647 161 hstem
          -196 322 vstem
          -177 647 rmoveto
          -60 callgsubr
          161 hmoveto
          -60 callgsubr
          endchar
        </CharString>
        <CharString name="uni030C">
          -495 651 154 hstem
          -162 279 vstem
          -135 804 -83 callgsubr
          endchar
        </CharString>
        <CharString name="uni030F">
          -495 544 170 hstem
          -194 295 vstem
          -78 544 -65 callsubr
          endchar
        </CharString>
        <CharString name="uni030F.case">
          -495 646 162 hstem
          -189 293 vstem
          -79 -68 callgsubr
          endchar
        </CharString>
        <CharString name="uni0311">
          -495 651 54 hstem
          25 36 vstem
          -40 705 -95 callsubr
          endchar
        </CharString>
        <CharString name="uni0311.case">
          -495 737 54 hstem
          41 36 vstem
          -24 791 -95 callsubr
          endchar
        </CharString>
        <CharString name="uni031B">
          -495 379 43 hstem
          -159 82 vstem
          -158 529 rmoveto
          -6 -13 rlineto
          3 -13 2 -16 -12 vvcurveto
          -44 -27 -9 -39 vhcurveto
          -37 -43 rlineto
          7 hlineto
          90 88 39 68 15 -4 24 -9 18 hvcurveto
          -68 -14 rlineto
          endchar
        </CharString>
        <CharString name="uni0326">
          -495 -221 190 hstem
          -264 125 vstem
          -154 -31 -62 callsubr
        </CharString>
        <CharString name="uni0327">
          -495 32 callgsubr
          hstem
          -169 65 vstem
          -168 8 rmoveto
          -31 hlineto
          -39 -74 -73 callsubr
          28 52 rlineto
          endchar
        </CharString>
        <CharString name="uni0328">
          -495 -236 44 hstem
          -301 69 vstem
          -152 hmoveto
          -34 hlineto
          -83 -60 -32 -61 -44 -71 callgsubr
          54 43 58 37 33 hvcurveto
          endchar
        </CharString>
        <CharString name="uni0394">
          3 callsubr
        </CharString>
        <CharString name="uni03A9">
          -50 callgsubr
        </CharString>
        <CharString name="uni03BC">
          -41 callgsubr
        </CharString>
        <CharString name="uni1E0C">
          127 -20 callsubr
          41 41 523 47 hstem
          184 120 195 88 vstem
          359 611 -76 callgsubr
          -40 -665 -100 callsubr
          endchar
        </CharString>
        <CharString name="uni1E0D">
          17 -20 callsubr
          33 57 -57 61 406 46 hstemhm
          34 86 9 120 72 76 hintmask 11011010
          420 201 rmoveto
          92 508 rlineto
          11 -7 7 -11 -28 -63 -15 -20 -58 vhcurveto
          5 -23 76 -9 -33 -164 rlineto
          5 -21 -21 4 -35 hhcurveto
          -154 -128 -132 -243 hvcurveto
          hintmask 10111010
          -107 45 -31 60 48 96 41 60 44 vhcurveto
          hintmask 11011010
          -25 callsubr
          4 60 9 36 10 56 rrcurveto
          -89 -47 rmoveto
          hintmask 10111010
          -43 callsubr
          hintmask 11011010
          -99 -19 -34 -180 -1 hhcurveto
          hintmask 11011110
          -82 -255 -100 callsubr
          endchar
        </CharString>
</ttFont>
